<svg width="106" height="119" viewBox="0 0 106 119" fill="none" xmlns="http://www.w3.org/2000/svg">
<path fill-rule="evenodd" clip-rule="evenodd" d="M43.5 17.0768C20.7104 21.3872 3.4752 41.4075 3.4752 65.4496C3.4752 92.6397 25.5171 114.682 52.7072 114.682C79.8972 114.682 101.939 92.6397 101.939 65.4496C101.939 41.4075 84.7039 21.3872 61.9144 17.0768L62.5603 13.6621C86.9605 18.2772 105.414 39.7064 105.414 65.4496C105.414 94.559 81.8166 118.157 52.7072 118.157C23.5978 118.157 0 94.559 0 65.4496C0 39.7064 18.4539 18.2772 42.8541 13.6621L43.5 17.0768Z" fill="white"/>
<path fill-rule="evenodd" clip-rule="evenodd" d="M48.2009 25.1529C27.9304 27.3937 12.1632 44.581 12.1632 65.4494C12.1632 87.8412 30.3154 105.993 52.7072 105.993C75.099 105.993 93.2512 87.8412 93.2512 65.4494C93.2512 44.581 77.4841 27.3937 57.2135 25.1529L57.4681 22.8501C78.8995 25.2192 95.568 43.3869 95.568 65.4494C95.568 89.1207 76.3786 108.31 52.7072 108.31C29.0359 108.31 9.84644 89.1207 9.84644 65.4494C9.84644 43.3869 26.515 25.2192 47.9463 22.8501L48.2009 25.1529Z" fill="white"/>
<path fill-rule="evenodd" clip-rule="evenodd" d="M39.6655 3.47507L52.7071 26.0639L65.7487 3.47507L39.6655 3.47507ZM49.6975 27.8015C51.0351 30.1183 54.3791 30.1183 55.7167 27.8015L68.7584 5.21267C70.096 2.89587 68.4239 -0.000127722 65.7487 -0.000127488L39.6655 -0.000125208C36.9902 -0.000124974 35.3182 2.89587 36.6558 5.21267L49.6975 27.8015Z" fill="#EF5F40"/>
</svg>
