<svg width="88" height="134" viewBox="0 0 88 134" fill="none" xmlns="http://www.w3.org/2000/svg">
<path fill-rule="evenodd" clip-rule="evenodd" d="M40.2023 6.40617C37.5245 7.96822 36.2586 9.89428 36.2586 11.6994C36.2586 13.9718 38.3118 16.4564 42.446 18.0652L43.452 18.4567V31.9743L42.446 32.3658C38.3118 33.9747 36.2586 36.4593 36.2586 38.7317C36.2586 41.0041 38.3118 43.4886 42.446 45.0975L43.452 45.489V59.0071L42.446 59.3986C38.3118 61.0075 36.2586 63.492 36.2586 65.7644C36.2586 66.4905 36.4553 67.2124 36.8549 67.9242L37.7914 69.5921L35.976 70.195C29.2727 72.421 23.8734 76.0774 20.5392 80.4839L20.264 80.8476L19.8371 81.0085C10.5753 84.4986 3.9911 93.4421 3.9911 103.919C3.9911 117.437 14.949 128.394 28.4662 128.394H63.1732C63.2306 128.394 63.2872 128.392 63.3427 128.387L64.7634 128.259L65.0336 129.66C65.0844 129.923 65.3356 130.112 65.6118 130.079L82.4484 128.093C82.7133 128.062 82.9129 127.837 82.9129 127.57V125.104C82.9129 124.838 82.7133 124.613 82.4484 124.582L65.6118 122.595C65.2989 122.558 65.024 122.803 65.024 123.118V124.832L63.322 124.699C63.2731 124.695 63.2235 124.693 63.1732 124.693H28.7199C17.3872 124.693 8.20026 115.506 8.20026 104.173C8.20026 98.5695 10.4486 93.4877 14.0889 89.7861L16.8206 87.0083L16.7927 90.9042C16.7924 90.9423 16.7923 90.9804 16.7923 91.0185C16.7923 97.1848 20.3892 102.934 26.5424 107.207C32.6897 111.477 41.2674 114.168 50.8177 114.168C60.3679 114.168 68.9457 111.477 75.093 107.207C81.2462 102.934 84.8431 97.1848 84.8431 91.0185C84.8431 82.1456 77.3249 74.0691 65.6604 70.1953L63.845 69.5924L64.7816 67.9245C65.1814 67.2126 65.3781 66.4906 65.3781 65.7644C65.3781 63.4919 63.3247 61.0072 59.1901 59.3984L58.1841 59.0069V45.4892L59.1901 45.0977C63.3247 43.4889 65.3781 41.0042 65.3781 38.7317C65.3781 36.4592 63.3247 33.9745 59.1901 32.3656L58.1841 31.9741V18.4569L59.1901 18.0655C63.3247 16.4566 65.3781 13.9719 65.3781 11.6994C65.3781 9.89428 64.1122 7.96822 61.4344 6.40617C58.7954 4.86672 55.0456 3.8639 50.8184 3.8639C46.5911 3.8639 42.8413 4.86672 40.2023 6.40617ZM38.6116 3.67932C41.8134 1.8116 46.1327 0.707031 50.8184 0.707031C55.504 0.707031 59.8233 1.8116 63.0251 3.67932C66.1882 5.52445 68.535 8.30535 68.535 11.6994C68.535 15.6454 65.4032 18.7438 61.341 20.5845V29.8466C65.4032 31.6873 68.535 34.7857 68.535 38.7317C68.535 42.6777 65.4032 45.7761 61.341 47.6167V56.8794C65.4032 58.72 68.535 61.8185 68.535 65.7644C68.535 66.4524 68.4364 67.1208 68.2521 67.7636C79.7346 72.0706 88 80.6807 88 91.0185C88 98.509 83.6267 105.124 76.8938 109.8C70.1551 114.48 60.9309 117.325 50.8177 117.325C40.7044 117.325 31.4803 114.48 24.7415 109.8C19.1995 105.951 15.2563 100.788 14.0347 94.9051C12.3382 97.587 11.3571 100.765 11.3571 104.173C11.3571 113.762 19.1307 121.536 28.7199 121.536H62.2225C62.8772 120.161 64.3564 119.268 65.9817 119.46L82.8183 121.447C84.6726 121.665 86.0698 123.237 86.0698 125.104V127.57C86.0698 129.437 84.6726 131.009 82.8183 131.228L65.9817 133.214C64.5243 133.386 63.1871 132.687 62.4536 131.551H28.4662C13.2055 131.551 0.834229 119.18 0.834229 103.919C0.834229 92.246 8.07223 82.267 18.3 78.2181C21.8177 73.7397 27.0922 70.1204 33.3844 67.7628C33.2002 67.1203 33.1017 66.4522 33.1017 65.7644C33.1017 61.8186 36.2332 58.7203 40.2951 56.8797V47.6164C36.2332 45.7758 33.1017 42.6775 33.1017 38.7317C33.1017 34.7859 36.2332 31.6876 40.2951 29.8469V20.5842C36.2332 18.7435 33.1017 15.6452 33.1017 11.6994C33.1017 8.30535 35.4485 5.52445 38.6116 3.67932Z" fill="white"/>
<path fill-rule="evenodd" clip-rule="evenodd" d="M57.9658 13.8716C59.6208 12.9034 59.8705 12.0274 59.8705 11.6994C59.8705 11.3715 59.6208 10.4954 57.9658 9.52724C56.3868 8.60353 53.9977 7.9308 51.1885 7.9308C48.3792 7.9308 45.9902 8.60353 44.4111 9.52724C42.7561 10.4954 42.5065 11.3715 42.5065 11.6994C42.5065 12.0274 42.7561 12.9034 44.4111 13.8716C45.9902 14.7953 48.3792 15.468 51.1885 15.468C53.9977 15.468 56.3868 14.7953 57.9658 13.8716ZM51.1885 18.6249C57.7269 18.6249 63.0274 15.5243 63.0274 11.6994C63.0274 7.87457 57.7269 4.77393 51.1885 4.77393C44.6501 4.77393 39.3496 7.87457 39.3496 11.6994C39.3496 15.5243 44.6501 18.6249 51.1885 18.6249Z" fill="#EF5F40"/>
</svg>
