<svg width="60" height="127" viewBox="0 0 60 127" fill="none" xmlns="http://www.w3.org/2000/svg">
<path fill-rule="evenodd" clip-rule="evenodd" d="M16.2176 25.4848V12.7424C16.2176 10.8231 14.6617 9.26719 12.7424 9.26719C10.8231 9.26719 9.26719 10.8231 9.26719 12.7424V25.4848C9.26719 27.4041 10.8231 28.96 12.7424 28.96C14.6617 28.96 16.2176 27.4041 16.2176 25.4848ZM12.7424 5.79199C8.90379 5.79199 5.79199 8.90379 5.79199 12.7424V25.4848C5.79199 29.3234 8.90379 32.4352 12.7424 32.4352C16.581 32.4352 19.6928 29.3234 19.6928 25.4848V12.7424C19.6928 8.90379 16.581 5.79199 12.7424 5.79199Z" fill="#EF5F40"/>
<path fill-rule="evenodd" clip-rule="evenodd" d="M47.4944 3.4752H11.584C7.10563 3.4752 3.4752 7.10563 3.4752 11.584V114.682C3.4752 119.16 7.10563 122.79 11.584 122.79H47.4944C51.9727 122.79 55.6032 119.16 55.6032 114.682V11.584C55.6032 7.10563 51.9727 3.4752 47.4944 3.4752ZM11.584 0C5.18633 0 0 5.18633 0 11.584V114.682C0 121.079 5.18633 126.266 11.584 126.266H47.4944C53.892 126.266 59.0784 121.079 59.0784 114.682V11.584C59.0784 5.18633 53.892 0 47.4944 0H11.584Z" fill="white"/>
</svg>
