<svg width="117" height="116" viewBox="0 0 117 116" fill="none" xmlns="http://www.w3.org/2000/svg">
<path fill-rule="evenodd" clip-rule="evenodd" d="M11.7133 33.1522L3.68287 47.3619C2.25738 49.8843 2.59368 53.0592 4.51436 55.2116L53.6371 110.262C56.2336 113.172 60.7166 113.172 63.3131 110.262L112.435 55.2116C114.356 53.0592 114.692 49.8843 113.267 47.362L105.237 33.1522C104.067 31.0829 101.906 29.8082 99.567 29.8082H17.3828C15.0439 29.8082 12.8827 31.0829 11.7133 33.1522ZM1.25309 45.9288C-0.783332 49.5322 -0.302905 54.0677 2.44094 57.1426L51.5636 112.193C55.2729 116.35 61.6772 116.35 65.3865 112.193L114.509 57.1426C117.253 54.0677 117.733 49.5322 115.697 45.9288L107.666 31.7191C105.996 28.7629 102.908 26.9419 99.567 26.9419H17.3828C14.0416 26.9419 10.9542 28.7629 9.28354 31.7191L1.25309 45.9288Z" fill="white"/>
<path fill-rule="evenodd" clip-rule="evenodd" d="M29.0374 52.0791C29.682 51.6401 30.553 51.8181 30.9827 52.4766L53.9343 87.648C54.3641 88.3065 54.1899 89.1963 53.5452 89.6354C52.9006 90.0744 52.0296 89.8965 51.5998 89.2379L28.6483 54.0666C28.2185 53.408 28.3927 52.5182 29.0374 52.0791Z" fill="white"/>
<path fill-rule="evenodd" clip-rule="evenodd" d="M87.9729 52.0791C87.3283 51.6401 86.4573 51.8181 86.0275 52.4766L63.076 87.648C62.6462 88.3065 62.8204 89.1963 63.465 89.6354C64.1097 90.0744 64.9806 89.8965 65.4104 89.2379L88.362 54.0666C88.7917 53.408 88.6175 52.5182 87.9729 52.0791Z" fill="white"/>
<path fill-rule="evenodd" clip-rule="evenodd" d="M38.9827 32.0918C39.6273 32.5308 39.8015 33.4206 39.3718 34.0792L32.0239 45.3392C31.5941 45.9978 30.7231 46.1757 30.0785 45.7367C29.4338 45.2976 29.2597 44.4078 29.6894 43.7493L37.0373 32.4892C37.4671 31.8307 38.338 31.6527 38.9827 32.0918Z" fill="white"/>
<path fill-rule="evenodd" clip-rule="evenodd" d="M79.22 32.208C78.5753 32.647 78.4011 33.5368 78.8309 34.1954L86.1788 45.4554C86.6085 46.114 87.4795 46.292 88.1241 45.8529C88.7688 45.4139 88.943 44.5241 88.5132 43.8655L81.1653 32.6054C80.7356 31.9469 79.8646 31.7689 79.22 32.208Z" fill="white"/>
<path fill-rule="evenodd" clip-rule="evenodd" d="M13.5736 2.7607C12.929 3.19974 12.7548 4.08954 13.1845 4.74812L20.5324 16.0082C20.9622 16.6667 21.8331 16.8447 22.4778 16.4056C23.1224 15.9666 23.2966 15.0768 22.8669 14.4182L15.519 3.15818C15.0892 2.49961 14.2182 2.32165 13.5736 2.7607Z" fill="#EF5F40"/>
<path fill-rule="evenodd" clip-rule="evenodd" d="M105.458 2.70601C106.103 3.14506 106.277 4.03486 105.847 4.69343L98.4995 15.9535C98.0697 16.612 97.1987 16.79 96.5541 16.351C95.9094 15.9119 95.7352 15.0221 96.165 14.3635L103.513 3.1035C103.943 2.44492 104.814 2.26696 105.458 2.70601Z" fill="#EF5F40"/>
<path fill-rule="evenodd" clip-rule="evenodd" d="M58.9749 16.2422C59.7496 16.2422 60.3777 15.6005 60.3777 14.809V1.43296C60.3777 0.641452 59.7496 -0.000192642 58.9749 -0.000192642C58.2001 -0.000192642 57.572 0.641452 57.572 1.43296V14.809C57.572 15.6005 58.2001 16.2422 58.9749 16.2422Z" fill="#EF5F40"/>
</svg>
