<svg width="91" height="133" viewBox="0 0 91 133" fill="none" xmlns="http://www.w3.org/2000/svg">
<path fill-rule="evenodd" clip-rule="evenodd" d="M45.5 25.6021L1.32686 122.733C-0.743225 127.285 2.58434 132.454 7.5848 132.454H83.4153C88.4158 132.454 91.7433 127.285 89.6732 122.733L45.5 25.6021ZM45.5 33.9053L4.45584 124.156C3.42079 126.432 5.08457 129.017 7.5848 129.017H83.4153C85.9155 129.017 87.5793 126.432 86.5443 124.156L45.5 33.9053Z" fill="white"/>
<path fill-rule="evenodd" clip-rule="evenodd" d="M45.5001 52.9854C46.1872 52.9854 46.8083 53.3946 47.0794 54.026L73.4033 115.346C73.7777 116.218 73.3742 117.228 72.502 117.603C71.6297 117.977 70.6191 117.574 70.2447 116.702L45.5001 59.0609L20.7554 116.702C20.381 117.574 19.3704 117.977 18.4982 117.603C17.6259 117.228 17.2224 116.218 17.5968 115.346L43.9208 54.026C44.1918 53.3946 44.8129 52.9854 45.5001 52.9854Z" fill="#EF5F40"/>
<path fill-rule="evenodd" clip-rule="evenodd" d="M33.256 1.57525C34.125 1.19337 35.139 1.58824 35.5209 2.45723L51.3205 38.4095C51.7024 39.2785 51.3075 40.2925 50.4385 40.6744C49.5695 41.0563 48.5555 40.6614 48.1736 39.7924L32.374 3.84016C31.9922 2.97117 32.387 1.95714 33.256 1.57525Z" fill="white"/>
<path fill-rule="evenodd" clip-rule="evenodd" d="M58.5596 1.71671C57.6983 1.31791 56.6767 1.6929 56.2779 2.55426L39.7789 38.1909C39.3801 39.0523 39.7551 40.0738 40.6164 40.4726C41.4778 40.8714 42.4994 40.4964 42.8982 39.6351L59.3972 3.99841C59.796 3.13705 59.421 2.1155 58.5596 1.71671Z" fill="white"/>
</svg>
