<svg width="23" height="24" viewBox="0 0 23 24" fill="none" xmlns="http://www.w3.org/2000/svg">
<path id="Clip 19" fill-rule="evenodd" clip-rule="evenodd" d="M11.073 2.20264C14.0295 2.20264 14.3798 2.21419 15.5475 2.26985C16.6271 2.32131 17.2135 2.50983 17.6035 2.66789C18.1204 2.87741 18.4894 3.12789 18.8769 3.53171C19.264 3.93605 19.5041 4.32096 19.7049 4.86025C19.8564 5.26722 20.0371 5.87898 20.0864 7.00536C20.1397 8.22363 20.1508 8.58911 20.1508 11.6736C20.1508 14.7582 20.1397 15.1237 20.0864 16.3419C20.0371 17.4683 19.8564 18.0801 19.7049 18.487C19.5041 19.0263 19.264 19.4112 18.8769 19.8156C18.4894 20.2194 18.1204 20.4699 17.6035 20.6794C17.2135 20.838 16.6271 21.026 15.5475 21.0774C14.3798 21.1331 14.03 21.1447 11.073 21.1447C8.11601 21.1447 7.76621 21.1331 6.59851 21.0774C5.5189 21.026 4.93253 20.838 4.54246 20.6794C4.02556 20.4699 3.65663 20.2194 3.26907 19.8156C2.88202 19.4112 2.64194 19.0263 2.44112 18.487C2.28912 18.0801 2.10893 17.4683 2.0596 16.3419C2.00625 15.1237 1.99518 14.7582 1.99518 11.6736C1.99518 8.58911 2.00625 8.22363 2.0596 7.00536C2.10893 5.87898 2.28912 5.26722 2.44112 4.86025C2.64194 4.32096 2.88202 3.93605 3.26907 3.53171C3.65663 3.12789 4.02556 2.87741 4.54246 2.66789C4.93253 2.50983 5.5189 2.32131 6.59851 2.26985C7.76621 2.21419 8.11652 2.20264 11.073 2.20264ZM11.0729 0.122681C8.06561 0.122681 7.68862 0.135807 6.50735 0.191988C5.32909 0.248168 4.52429 0.443488 3.81965 0.729116C3.09135 1.0242 2.47379 1.41903 1.85824 2.06117C1.24268 2.70384 0.86419 3.34755 0.581328 4.1073C0.307525 4.84237 0.120292 5.68193 0.0664374 6.91108C0.0125828 8.14338 0 8.53664 0 11.6738C0 14.811 0.0125828 15.2043 0.0664374 16.4366C0.120292 17.6657 0.307525 18.5053 0.581328 19.2404C0.86419 20.0001 1.24268 20.6438 1.85824 21.286C2.47379 21.9286 3.09135 22.3235 3.81965 22.6185C4.52429 22.9042 5.32909 23.0995 6.50735 23.1557C7.68862 23.2119 8.06561 23.225 11.0729 23.225C14.0802 23.225 14.4572 23.2119 15.638 23.1557C16.8167 23.0995 17.6215 22.9042 18.3262 22.6185C19.0545 22.3235 19.6715 21.9286 20.2871 21.286C20.9031 20.6438 21.2816 20.0001 21.5645 19.2404C21.8383 18.5053 22.0255 17.6657 22.0794 16.4366C22.1332 15.2043 22.1458 14.811 22.1458 11.6738C22.1458 8.53664 22.1332 8.14338 22.0794 6.91108C22.0255 5.68193 21.8383 4.84237 21.5645 4.1073C21.2816 3.34755 20.9031 2.70384 20.2871 2.06117C19.6715 1.41903 19.0545 1.0242 18.3262 0.729116C17.6215 0.443488 16.8167 0.248168 15.638 0.191988C14.4572 0.135807 14.0802 0.122681 11.0729 0.122681ZM11.0951 5.76135C7.95244 5.76135 5.40466 8.41938 5.40466 11.6981C5.40466 14.9762 7.95244 17.6343 11.0951 17.6343C14.2373 17.6343 16.7851 14.9762 16.7851 11.6981C16.7851 8.41938 14.2373 5.76135 11.0951 5.76135ZM11.095 15.5524C9.05512 15.5524 7.40125 13.8274 7.40125 11.6991C7.40125 9.57085 9.05512 7.84534 11.095 7.84534C13.135 7.84534 14.7883 9.57085 14.7883 11.6991C14.7883 13.8274 13.135 15.5524 11.095 15.5524ZM18.279 5.48615C18.279 6.24593 17.6891 6.86133 16.9608 6.86133C16.2329 6.86133 15.6425 6.24593 15.6425 5.48615C15.6425 4.72688 16.2329 4.11096 16.9608 4.11096C17.6891 4.11096 18.279 4.72688 18.279 5.48615Z" fill="black"/>
</svg>
