<svg width="35" height="27" viewBox="0 0 35 27" fill="none" xmlns="http://www.w3.org/2000/svg">
<path fill-rule="evenodd" clip-rule="evenodd" d="M0 0.898185C0 0.402131 0.402131 0 0.898185 0H7.09293C7.46562 0 7.79959 0.230159 7.93227 0.578435L14.7916 18.5842H32.7568C33.2529 18.5842 33.655 18.9863 33.655 19.4824C33.655 19.9785 33.2529 20.3806 32.7568 20.3806H14.1726C13.7999 20.3806 13.466 20.1504 13.3333 19.8021L6.47394 1.79637H0.898185C0.402131 1.79637 0 1.39424 0 0.898185ZM11.6965 3.88303C11.8831 3.64565 12.1764 3.51788 12.4773 3.54295L33.7164 5.31288C33.9716 5.33414 34.2055 5.46329 34.3595 5.66788C34.5134 5.87247 34.5728 6.13304 34.5226 6.38411L32.7526 15.2337C32.6687 15.6536 32.3 15.9558 31.8719 15.9558H15.9426C15.5559 15.9558 15.2127 15.7084 15.0905 15.3416L11.5506 4.72207C11.4551 4.43564 11.5099 4.12041 11.6965 3.88303ZM13.6855 5.44624L16.5899 14.1594H31.1355L32.5635 7.0194L13.6855 5.44624Z" fill="white"/>
<circle cx="17.2709" cy="24.349" r="2.2124" fill="white"/>
<circle cx="29.6574" cy="24.349" r="2.2124" fill="white"/>
</svg>
