<svg width="137" height="113" viewBox="0 0 137 113" fill="none" xmlns="http://www.w3.org/2000/svg">
<path fill-rule="evenodd" clip-rule="evenodd" d="M13.3216 22.0094C7.88358 22.0094 3.4752 26.4178 3.4752 31.8558V99.0429C3.4752 104.481 7.88358 108.889 13.3216 108.889H123.37C128.808 108.889 133.216 104.481 133.216 99.0429V31.8558C133.216 26.4178 128.808 22.0094 123.37 22.0094H97.4516V18.5342H123.37C130.727 18.5342 136.691 24.4985 136.691 31.8558V99.0429C136.691 106.4 130.727 112.365 123.37 112.365H13.3216C5.96428 112.365 0 106.4 0 99.0429V31.8558C0 24.4985 5.96428 18.5342 13.3216 18.5342H38.6798V22.0094H13.3216ZM90.1751 22.0094H45.9563V18.5342H90.1751V22.0094Z" fill="white"/>
<path fill-rule="evenodd" clip-rule="evenodd" d="M37.0688 12.8761C37.0688 6.01735 41.9075 0 48.4 0H88.2912C94.7836 0 99.6224 6.01734 99.6224 12.8761V26.9381C99.6224 29.974 97.1612 32.4352 94.1252 32.4352C91.0892 32.4352 88.6281 29.974 88.6281 26.9381V16.0367C88.6281 13.668 87.024 12.2051 85.5689 12.2051H51.1222C49.6671 12.2051 48.0631 13.668 48.0631 16.0367V26.9381C48.0631 29.974 45.6019 32.4352 42.5659 32.4352C39.5299 32.4352 37.0688 29.974 37.0688 26.9381V12.8761ZM48.4 3.4752C44.2956 3.4752 40.544 7.43158 40.544 12.8761V26.9381C40.544 28.0547 41.4492 28.96 42.5659 28.96C43.6826 28.96 44.5879 28.0547 44.5879 26.9381V16.0367C44.5879 12.2538 47.279 8.72989 51.1222 8.72989H85.5689C89.4122 8.72989 92.1033 12.2538 92.1033 16.0367V26.9381C92.1033 28.0547 93.0085 28.96 94.1252 28.96C95.2419 28.96 96.1472 28.0547 96.1472 26.9381V12.8761C96.1472 7.43157 92.3955 3.4752 88.2912 3.4752H48.4Z" fill="#EF5F40"/>
<path fill-rule="evenodd" clip-rule="evenodd" d="M19.1136 46.9152C19.1136 46.2755 19.6322 45.7568 20.272 45.7568H116.419C117.059 45.7568 117.578 46.2755 117.578 46.9152C117.578 47.555 117.059 48.0736 116.419 48.0736H20.272C19.6322 48.0736 19.1136 47.555 19.1136 46.9152Z" fill="white"/>
<path fill-rule="evenodd" clip-rule="evenodd" d="M19.1136 87.4592C19.1136 86.8194 19.6322 86.3008 20.272 86.3008H116.419C117.059 86.3008 117.578 86.8194 117.578 87.4592C117.578 88.0989 117.059 88.6176 116.419 88.6176H20.272C19.6322 88.6176 19.1136 88.0989 19.1136 87.4592Z" fill="white"/>
</svg>
