<svg width="152" height="48" viewBox="0 0 152 48" fill="none" xmlns="http://www.w3.org/2000/svg">
<path d="M59.0238 4.68368C58.3923 5.21673 57.5802 5.49338 56.751 5.45798H55.3617V9.38744H54.5899V0.000967811H56.8255C57.3748 -0.0114891 57.9201 0.0964391 58.4223 0.317014C58.8739 0.522274 59.2536 0.855677 59.5132 1.27489C59.7729 1.69411 59.9008 2.18023 59.8808 2.67153C59.8956 3.04857 59.8265 3.42422 59.6784 3.77191C59.5303 4.11961 59.3069 4.43087 59.0238 4.68368ZM55.3617 4.79429H56.7031C57.3316 4.8284 57.9503 4.62931 58.4383 4.23594C58.6558 4.0356 58.8255 3.78984 58.9351 3.51651C59.0446 3.24318 59.0913 2.94914 59.0717 2.65573C59.0899 2.37952 59.0436 2.10287 58.9365 1.84715C58.8295 1.59143 58.6645 1.36347 58.4543 1.18086C57.9476 0.802316 57.3208 0.615496 56.6871 0.654126H55.3617V4.79429Z" fill="white"/>
<path d="M70.5637 9.38759L67.748 5.44759H66.1511V9.38759H65.3953V0.00111793H67.6575C68.2217 -0.00695705 68.7805 0.111918 69.2916 0.348767C69.7464 0.546824 70.1212 0.889879 70.3561 1.32324C70.5716 1.72385 70.6849 2.17047 70.6862 2.62428C70.7117 3.24352 70.5104 3.85105 70.1191 4.335C69.7279 4.81895 69.1731 5.14672 68.557 5.25797L71.5485 9.37706L70.5637 9.38759ZM67.6149 4.79971C68.221 4.83432 68.8163 4.62974 69.2703 4.23082C69.4743 4.02227 69.6325 3.77426 69.7351 3.50233C69.8377 3.23041 69.8824 2.94044 69.8664 2.65062C69.8823 2.3764 69.8361 2.10213 69.7311 1.84787C69.6261 1.5936 69.465 1.36577 69.2596 1.18101C68.7712 0.802694 68.1593 0.615228 67.5404 0.654276H66.1511V4.78391L67.6149 4.79971Z" fill="white"/>
<path d="M76.6426 9.38745V0.000976562H77.4198V9.38745H76.6426Z" fill="white"/>
<path d="M91.9672 9.38745V0.959643L91.6372 1.9025L88.6404 8.82383H87.8207L84.8133 1.9025L84.4833 0.959643V9.38745H83.7541V0.000976562H84.7814L87.5546 6.43246L88.2412 8.0706L88.9279 6.43246L91.6957 0.000976562H92.7284V9.38745H91.9672Z" fill="white"/>
<path d="M99.062 9.38745V0.000976562H104.412V0.706811H99.8339V4.27809H103.964V4.98393H99.8339V8.67109H104.577V9.38745H99.062Z" fill="white"/>
<path d="M17.2021 45.7351C16.4576 46.3395 15.5923 46.7811 14.6631 47.0309C13.5628 47.3759 12.416 47.5535 11.2618 47.5576C9.7533 47.5716 8.25299 47.3366 6.82258 46.8623C5.52215 46.4343 4.32201 45.7518 3.29354 44.8554C2.29929 43.9751 1.51872 42.884 1.01005 41.6634C0.466908 40.3556 0.195373 38.9529 0.211626 37.5391C0.195856 36.0607 0.478146 34.5942 1.04199 33.2251C1.56253 31.9565 2.34584 30.8099 3.34145 29.8592C4.33571 28.9338 5.50901 28.217 6.79064 27.7523C8.12776 27.2542 9.5457 27.0025 10.9744 27.0096C12.1648 26.9935 13.3519 27.137 14.5034 27.4362C15.4191 27.6653 16.2813 28.0678 17.0424 28.6214V30.4544C16.2985 29.8262 15.4274 29.3628 14.4875 29.0955C13.3521 28.7366 12.1662 28.5588 10.9744 28.5687C9.81215 28.5638 8.65723 28.7507 7.55713 29.1218C6.48885 29.4803 5.50546 30.0502 4.66683 30.7968C3.79796 31.5846 3.12095 32.5571 2.68674 33.6412C2.18826 34.8933 1.94408 36.2304 1.96816 37.5759C1.94788 38.8239 2.19269 40.0621 2.68674 41.2104C3.13146 42.2389 3.8089 43.1526 4.66683 43.881C5.54103 44.605 6.55007 45.1526 7.63697 45.4928C8.80792 45.8664 10.0315 46.0531 11.2618 46.0459C12.4383 46.0486 13.6061 45.8453 14.711 45.4454C15.6471 45.1494 16.5002 44.6407 17.2021 43.96V45.7351Z" fill="white"/>
<path d="M40.2933 40.0541H31.7023L28.7641 47.3125H27.0714L35.2473 27.1806H36.9399L44.9242 47.3125H43.1676L40.2933 40.0541ZM32.2825 38.6003H39.7344L36.6365 30.7624L36.0297 28.8662L35.391 30.7624L32.2825 38.6003Z" fill="white"/>
<path d="M67.5985 47.3125L61.5571 38.8847H58.1399V47.3125H56.5111V27.1911H61.3655C62.5732 27.1716 63.7694 27.4256 64.8626 27.9338C65.8283 28.3699 66.6202 29.111 67.1142 30.0408C67.5741 30.9029 67.8153 31.8628 67.8168 32.8377C67.8553 34.1687 67.4264 35.4717 66.6032 36.5249C65.7437 37.5557 64.5454 38.2549 63.2178 38.5002L69.6425 47.3125H67.5985ZM61.275 37.4836C61.9177 37.521 62.5616 37.4329 63.1698 37.2241C63.7781 37.0153 64.3388 36.69 64.82 36.2668C65.2578 35.8245 65.5975 35.2968 65.8175 34.7172C66.0374 34.1377 66.1328 33.5191 66.0975 32.901C66.1333 32.3121 66.0358 31.7228 65.812 31.176C65.5882 30.6292 65.2439 30.1388 64.8041 29.7405C63.9418 28.9926 62.7122 28.6186 61.1153 28.6186H58.1452V37.4678L61.275 37.4836Z" fill="white"/>
<path d="M91.2162 45.9168C90.0133 46.8544 88.3579 47.3232 86.25 47.3232H80.9804V27.1913H85.8029C87.8469 27.1913 89.4224 27.639 90.5296 28.5345C91.4515 29.3663 92.0337 30.5035 92.1661 31.7312C92.2985 32.9589 91.9719 34.192 91.2481 35.1977C90.6206 36.0403 89.7272 36.6519 88.7092 36.9359C89.9088 37.1886 90.998 37.8077 91.823 38.7058C92.6927 39.7504 93.116 41.0898 93.0026 42.4386C92.8893 43.7874 92.2483 45.0392 91.2162 45.9274V45.9168ZM85.5793 28.6451H82.6092V36.4197H85.7071C86.6133 36.4321 87.5116 36.2525 88.3419 35.893C89.0442 35.6043 89.6249 35.0854 89.9866 34.4234C90.3282 33.808 90.5111 33.1186 90.5189 32.4165C90.5047 29.9022 88.8582 28.6451 85.5793 28.6451ZM89.9068 38.8849C88.9806 38.1826 87.6127 37.8314 85.8029 37.8314H82.6092V45.8589H86.282C89.6247 45.8589 91.2961 44.5631 91.2961 41.9715C91.333 41.3843 91.226 40.797 90.9841 40.2596C90.7422 39.7221 90.3726 39.2505 89.9068 38.8849Z" fill="white"/>
<path d="M109.373 46.8492C108.182 46.4003 107.096 45.7176 106.179 44.8423C105.253 43.9481 104.528 42.8714 104.05 41.6819C103.531 40.3957 103.27 39.0215 103.283 37.6365C103.264 36.1184 103.54 34.6107 104.098 33.1961C104.58 31.9505 105.321 30.8189 106.272 29.8744C107.224 28.9299 108.366 28.1935 109.623 27.7128C112.123 26.7545 114.892 26.7433 117.399 27.6812C118.59 28.1301 119.676 28.8128 120.593 29.6881C121.519 30.5823 122.244 31.659 122.722 32.8485C123.242 34.1347 123.502 35.5089 123.489 36.8938C123.495 38.0536 123.333 39.2082 123.01 40.3229C122.718 41.3476 122.271 42.3226 121.684 43.2147C121.139 44.0366 120.466 44.7674 119.688 45.3796C118.839 46.0257 117.897 46.5424 116.894 46.9124C115.725 47.3464 114.485 47.5608 113.237 47.5445C111.916 47.5519 110.606 47.3161 109.373 46.8492ZM116.558 45.3954C117.583 45.0076 118.509 44.4036 119.273 43.6255C120.071 42.7961 120.686 41.8113 121.078 40.7338C121.528 39.5034 121.75 38.2024 121.732 36.8938C121.734 36.0044 121.616 35.1186 121.381 34.2601C121.166 33.4599 120.826 32.6976 120.375 32.0004C119.949 31.348 119.42 30.7666 118.81 30.278C118.134 29.7549 117.38 29.339 116.574 29.0454C115.599 28.6853 114.565 28.5067 113.524 28.5187C112.389 28.5123 111.263 28.7159 110.203 29.1192C109.179 29.507 108.253 30.111 107.488 30.889C106.69 31.7185 106.076 32.7033 105.684 33.7808C105.233 35.0112 105.011 36.3121 105.029 37.6207C105.027 38.5102 105.145 39.396 105.381 40.2544C105.596 41.0546 105.935 41.817 106.387 42.5141C106.813 43.1666 107.341 43.748 107.951 44.2366C108.628 44.7597 109.382 45.1755 110.187 45.4691C111.162 45.8293 112.196 46.0079 113.237 45.9959C114.372 46.0023 115.499 45.7987 116.558 45.3954Z" fill="white"/>
<path d="M149.677 47.3127L138.499 31.1313L137.093 28.919V47.3127H135.544V27.1913H137.62L148.266 42.5194L149.671 44.7633V27.1913H151.236V47.3127H149.677Z" fill="white"/>
</svg>
