<svg width="29" height="23" viewBox="0 0 29 23" fill="none" xmlns="http://www.w3.org/2000/svg">
<path d="M27.2121 2.87476e-06C27.108 -0.000269342 27.0047 0.0187934 26.9076 0.0562208L0.548572 10.0676C0.384777 10.1294 0.244128 10.2404 0.145935 10.3854C0.0477412 10.5303 -0.00318243 10.7021 0.000154077 10.8771C0.00349058 11.0522 0.0609241 11.2219 0.16457 11.363C0.268215 11.5041 0.412992 11.6096 0.579024 11.6651L6.68799 13.7311L10.3726 21.1027V21.1214C10.4037 21.1896 10.4533 21.2478 10.5159 21.2892C10.5784 21.3306 10.6513 21.3536 10.7263 21.3556C10.8202 21.3553 10.9108 21.3212 10.9816 21.2596L14.446 18.3386L10.5928 15.4059L10.8949 19.2475L8.12388 13.5109L22.8482 4.6684L10.5928 15.4059L20.1333 22.6463C20.4328 22.8767 20.8003 23.0011 21.1781 23C21.5662 23.001 21.9435 22.8719 22.2497 22.6332C22.5558 22.3946 22.7732 22.0602 22.8669 21.6836L28.0202 1.05642C28.0512 0.932435 28.0539 0.80305 28.028 0.677892C28.0021 0.552733 27.9483 0.43502 27.8707 0.333507C27.793 0.231995 27.6935 0.149294 27.5794 0.0915546C27.4654 0.0338148 27.3398 0.00252179 27.2121 2.87476e-06Z" fill="black"/>
</svg>
