<svg width="22" height="21" viewBox="0 0 22 21" fill="none" xmlns="http://www.w3.org/2000/svg">
<path id="Mask Copy" fill-rule="evenodd" clip-rule="evenodd" d="M19.4082 3.45345C20.3406 2.82259 21.0561 1.8221 21.3919 0.630602C20.5187 1.21596 19.5543 1.63952 18.525 1.86872C17.7037 0.87553 16.5299 0.25647 15.2308 0.25647C12.7385 0.25647 10.7192 2.54227 10.7192 5.36119C10.7192 5.76173 10.7564 6.15159 10.834 6.52403C7.084 6.31057 3.75886 4.28036 1.53162 1.18955C1.14295 1.94625 0.920857 2.82259 0.920857 3.75736C0.920857 5.52803 1.71757 7.09085 2.92862 8.00764C2.189 7.9818 1.49286 7.74924 0.883143 7.36948V7.4324C0.883143 9.9064 2.43781 11.9703 4.50529 12.4377C4.12552 12.5573 3.72795 12.6175 3.31467 12.6175C3.02448 12.6175 2.74005 12.5866 2.46662 12.527C3.03967 14.5544 4.70695 16.0324 6.68276 16.0717C5.137 17.4419 3.19105 18.257 1.07695 18.257C0.712905 18.257 0.352524 18.2351 0 18.1868C1.99781 19.6344 4.36962 20.4799 6.919 20.4799C15.2219 20.4799 19.7597 12.7006 19.7597 5.95441C19.7597 5.73251 19.757 5.51174 19.7481 5.29434C20.6297 4.57416 21.3971 3.67422 22 2.65013C21.1902 3.05629 20.3201 3.33099 19.4082 3.45345Z" fill="black"/>
</svg>
