<svg width="152" height="48" viewBox="0 0 152 48" fill="none" xmlns="http://www.w3.org/2000/svg">
<path fill-rule="evenodd" clip-rule="evenodd" d="M59.0233 4.67148C58.3917 5.20315 57.5797 5.47908 56.7504 5.44378H55.3612V9.36301H54.5894V0.000965292H56.8249C57.3743 -0.0114592 57.9196 0.0961881 58.4218 0.316189C58.8733 0.520914 59.253 0.85345 59.5127 1.27157C59.7723 1.6897 59.9003 2.17455 59.8802 2.66458C59.895 3.04063 59.8259 3.4153 59.6779 3.7621C59.5298 4.10889 59.3063 4.41934 59.0233 4.67148ZM55.3612 4.78181H56.7025C57.331 4.81583 57.9497 4.61726 58.4377 4.22492C58.6552 4.0251 58.8249 3.77998 58.9345 3.50736C59.044 3.23474 59.0907 2.94146 59.0712 2.64882C59.0893 2.37332 59.043 2.09739 58.936 1.84234C58.8289 1.58728 58.6639 1.35992 58.4537 1.17779C57.947 0.800227 57.3202 0.613894 56.6865 0.652423H55.3612V4.78181ZM70.563 9.36341L67.7472 5.43366H66.1504V9.36341H65.3945V0.00136107H67.6567C68.221 -0.0066929 68.7798 0.111873 69.2908 0.348105C69.7457 0.545647 70.1205 0.887809 70.3554 1.32004C70.5708 1.71961 70.6841 2.16507 70.6854 2.6177C70.711 3.23532 70.5096 3.84128 70.1184 4.32397C69.7272 4.80666 69.1724 5.13358 68.5563 5.24453L71.5477 9.35291L70.563 9.36341ZM67.6142 4.78746C68.2203 4.82199 68.8156 4.61794 69.2696 4.22006C69.4736 4.01205 69.6318 3.76468 69.7344 3.49346C69.837 3.22224 69.8817 2.93304 69.8657 2.64397C69.8816 2.37046 69.8353 2.09691 69.7303 1.8433C69.6254 1.5897 69.4643 1.36246 69.2589 1.17819C68.7705 0.800852 68.1586 0.613873 67.5396 0.652819H66.1504V4.7717L67.6142 4.78746ZM76.6421 0.000976562V9.36302H77.4192V0.000976562H76.6421ZM91.9665 9.36302V0.957148L91.6365 1.89755L88.6397 8.80087H87.82L84.8127 1.89755L84.4826 0.957148V9.36302H83.7534V0.000976562H84.7807L87.5539 6.41572L88.2405 8.0496L88.9272 6.41572L91.695 0.000976562H92.7277V9.36302H91.9665ZM99.0615 0.000976562V9.36302H104.576V8.64853H99.8333V4.97096H103.964V4.26695H99.8333V0.704974H104.411V0.000976562H99.0615ZM17.2016 45.616C16.4571 46.2188 15.5918 46.6592 14.6626 46.9084C13.5623 47.2525 12.4155 47.4297 11.2613 47.4338C9.75281 47.4477 8.25251 47.2133 6.82209 46.7403C5.52167 46.3134 4.32152 45.6326 3.29306 44.7386C2.2988 43.8606 1.51823 42.7723 1.00956 41.5549C0.466419 40.2505 0.194884 38.8515 0.211138 37.4413C0.195367 35.9668 0.477658 34.504 1.0415 33.1385C1.56204 31.8733 2.34535 30.7297 3.34096 29.7814C4.33523 28.8584 5.50852 28.1435 6.79015 27.68C8.12727 27.1832 9.54521 26.9322 10.9739 26.9392C12.1643 26.9231 13.3514 27.0663 14.5029 27.3647C15.4187 27.5933 16.2809 27.9947 17.0419 28.5468V30.3751C16.298 29.7485 15.4269 29.2863 14.487 29.0197C13.3516 28.6617 12.1657 28.4844 10.9739 28.4943C9.81166 28.4894 8.65674 28.6758 7.55664 29.0459C6.48836 29.4035 5.50497 29.9719 4.66635 30.7166C3.79747 31.5023 3.12046 32.4723 2.68625 33.5536C2.18777 34.8024 1.94359 36.136 1.96767 37.4781C1.94739 38.7227 2.1922 39.9577 2.68625 41.1031C3.13097 42.1289 3.80841 43.0402 4.66635 43.7667C5.54054 44.4889 6.54958 45.035 7.63648 45.3743C8.80743 45.747 10.031 45.9332 11.2613 45.926C12.4378 45.9287 13.6056 45.7259 14.7105 45.3271C15.6466 45.0318 16.4997 44.5245 17.2016 43.8455V45.616ZM31.7017 39.9503H40.2927L43.167 47.1899H44.9236L36.9393 27.1104H35.2467L27.0708 47.1899H28.7635L31.7017 39.9503ZM39.7338 38.5003H32.2819L35.3904 30.6828L36.0291 28.7915L36.6359 30.6828L39.7338 38.5003ZM67.5982 47.1897L61.5568 38.7838H58.1395V47.1897H56.5107V27.1207H61.3651C62.5728 27.1012 63.769 27.3546 64.8622 27.8614C65.8279 28.2964 66.6199 29.0356 67.1138 29.9629C67.5738 30.8228 67.8149 31.7802 67.8164 32.7526C67.8549 34.0801 67.426 35.3797 66.6028 36.4302C65.7433 37.4583 64.545 38.1557 63.2175 38.4003L69.6421 47.1897H67.5982ZM61.2747 37.3864C61.9173 37.4237 62.5612 37.3358 63.1695 37.1276C63.7777 36.9193 64.3384 36.5949 64.8197 36.1728C65.2574 35.7316 65.5971 35.2052 65.8171 34.6272C66.0371 34.0491 66.1324 33.4322 66.0971 32.8157C66.133 32.2283 66.0354 31.6405 65.8116 31.0952C65.5879 30.5498 65.2435 30.0607 64.8037 29.6635C63.9414 28.9174 62.7118 28.5444 61.115 28.5444H58.1448V37.3706L61.2747 37.3864ZM86.2496 47.2006C88.3574 47.2006 90.0128 46.733 91.2158 45.7979V45.8084C92.2479 44.9226 92.8889 43.6741 93.0022 42.3287C93.1155 40.9834 92.6923 39.6475 91.8226 38.6056C90.9976 37.7098 89.9084 37.0924 88.7087 36.8404C89.7268 36.557 90.6201 35.947 91.2477 35.1067C91.9715 34.1036 92.2981 32.8737 92.1657 31.6492C92.0333 30.4247 91.4511 29.2905 90.5291 28.4608C89.422 27.5677 87.8464 27.1211 85.8025 27.1211H80.98V47.2006H86.2496ZM82.6088 28.5711H85.5789C88.8578 28.5711 90.5043 29.825 90.5185 32.3327C90.5106 33.033 90.3278 33.7206 89.9862 34.3344C89.6245 34.9947 89.0438 35.5122 88.3415 35.8002C87.5112 36.1587 86.6128 36.3378 85.7067 36.3255H82.6088V28.5711ZM85.8025 37.7335C87.6122 37.7335 88.9802 38.0838 89.9064 38.7842C90.3722 39.1489 90.7417 39.6193 90.9836 40.1553C91.2255 40.6914 91.3326 41.2772 91.2956 41.8629C91.2956 44.4477 89.6243 45.7401 86.2815 45.7401H82.6088V37.7335H85.8025ZM109.372 46.7272C108.182 46.2794 107.095 45.5986 106.178 44.7255C105.253 43.8337 104.527 42.7597 104.049 41.5733C103.53 40.2905 103.27 38.9199 103.283 37.5385C103.263 36.0243 103.54 34.5206 104.097 33.1097C104.579 31.8673 105.32 30.7386 106.272 29.7966C107.223 28.8545 108.365 28.12 109.622 27.6406C112.122 26.6848 114.891 26.6736 117.399 27.6091C118.589 28.0568 119.676 28.7377 120.593 29.6107C121.518 30.5026 122.244 31.5765 122.722 32.7629C123.241 34.0458 123.501 35.4164 123.488 36.7977C123.494 37.9545 123.333 39.1061 123.009 40.2179C122.717 41.2399 122.271 42.2123 121.684 43.1021C121.139 43.922 120.465 44.6508 119.688 45.2614C118.839 45.9058 117.897 46.4212 116.893 46.7902C115.725 47.2231 114.484 47.437 113.236 47.4207C111.916 47.4281 110.605 47.1929 109.372 46.7272ZM116.558 45.2772C117.582 44.8903 118.508 44.288 119.272 43.5119C120.07 42.6847 120.685 41.7024 121.077 40.6277C121.528 39.4005 121.749 38.1029 121.732 36.7977C121.734 35.9106 121.616 35.0271 121.38 34.1709C121.165 33.3728 120.826 32.6124 120.374 31.9171C119.948 31.2663 119.42 30.6865 118.809 30.1991C118.133 29.6774 117.379 29.2626 116.574 28.9698C115.599 28.6106 114.565 28.4325 113.524 28.4444C112.389 28.438 111.262 28.6411 110.202 29.0433C109.178 29.4301 108.252 30.0325 107.488 30.8086C106.69 31.6358 106.075 32.6181 105.683 33.6928C105.232 34.92 105.011 36.2176 105.029 37.5227C105.026 38.4099 105.145 39.2934 105.38 40.1496C105.595 40.9477 105.934 41.708 106.386 42.4034C106.812 43.0542 107.34 43.634 107.951 44.1214C108.627 44.6431 109.381 45.0579 110.186 45.3507C111.162 45.7099 112.196 45.888 113.236 45.8761C114.372 45.8825 115.498 45.6794 116.558 45.2772ZM138.498 31.0508L149.676 47.1901H151.236V27.1211H149.671V44.6473L148.265 42.4093L137.62 27.1211H135.544V47.1901H137.093V28.8443L138.498 31.0508Z" fill="#010101"/>
</svg>
