<svg width="41" height="47" viewBox="0 0 41 47" fill="none" xmlns="http://www.w3.org/2000/svg">
<path d="M40.9933 11.8138L32.1194 6.76431L29.4389 8.30567V5.14768L20.5283 0L11.5678 5.20331V8.32858L8.87063 6.78395L0 11.8335V35.1698L8.73077 40.2815L11.5678 38.5896V41.8621L20.525 47L29.319 41.8949H29.3357V38.5274L32.2659 40.275L41 35.1633V11.8138H40.9933ZM5.47422 18.6861V31.5275L3.47633 32.686V17.4949L5.47422 18.6861ZM31.7797 19.3832L29.8385 18.2378V16.0059L31.7897 17.1709L31.7797 19.3832ZM20.5316 23.2087L12.7931 18.6796L14.791 17.4818L19.7192 20.3387L20.5183 20.8002L26.179 17.5276L28.2002 18.7156L20.5316 23.2087ZM9.21027 17.1873L11.1582 16.0223V18.2541L9.21027 19.3897V17.1873ZM26.6618 9.4936V7.29446L28.6064 6.12944V8.3613L26.6618 9.4936ZM25.826 9.56232L20.9645 6.75122V4.44409L25.8194 7.28791L25.826 9.56232ZM20.9645 19.6188V7.65116L22.7793 8.71801V18.565L20.9645 19.6188ZM20.1254 7.65444V19.6646L18.0043 18.421V8.898L20.1254 7.65444ZM20.1254 4.44736V6.73813L15.1906 9.59832V7.34027L20.1254 4.44736ZM14.3515 7.34355V9.54268L12.4036 8.42021V6.17853L14.3515 7.34355ZM11.1516 11.876L8.82068 13.2177L6.80281 12.0527L11.1582 9.57541L11.1516 11.876ZM11.984 12.3374V9.07471L14.821 10.7666L17.1519 9.39215V17.94L14.821 16.5688L11.9807 18.2051V15.0438L9.61983 13.6824L11.984 12.3374ZM29.0027 15.034V18.2541L26.1723 16.595L23.6117 18.0807V9.20889L26.179 10.711L29.0027 9.0289V12.3243L31.3602 13.6726L29.0027 15.034ZM32.176 13.2046L29.8451 11.8596V9.56886L34.2005 12.0462L32.176 13.2046ZM26.2389 6.59741L20.5283 3.30852L14.7711 6.6465L12.7299 5.47494L20.545 0.8934L28.2768 5.41603L26.2389 6.59741ZM5.47754 11.8727L5.22115 12.02L10.8219 15.2925L8.77739 16.4935L1.19207 12.092L8.90393 7.70352L10.8019 8.81946L5.47754 11.8727ZM8.73077 20.6071L11.4346 18.9937V22.0306L13.9919 23.5098L11.5678 24.9006L11.5844 24.9203H11.5678V28.0095L8.77739 26.3733L6.31333 27.7903V19.1705L8.73077 20.6071ZM12.8131 38.3638L14.7378 37.2184L17.1685 38.6027V40.9524L12.8131 38.3638ZM8.77739 27.3158L10.7986 28.507L6.30001 31.0792V28.7295L8.77739 27.3158ZM17.1552 28.1993L15.1773 29.3349V26.9754L17.1552 25.8464V28.1993ZM14.3515 27.0736V29.276L12.4036 28.1437V25.9119L14.3515 27.0736ZM11.1516 29.2727V31.5635L8.83733 32.8921L6.82279 31.7271L11.1516 29.2727ZM11.984 32.0347V28.8015L14.821 30.4934L17.1519 29.1582V37.6668L14.7711 36.2956L11.984 37.9122V34.7149L9.65313 33.3601L11.984 32.0347ZM14.6911 26.3373L12.7232 25.1886L14.8143 24.0007L16.7689 25.1101L14.6911 26.3373ZM5.97369 32.146L10.8252 34.9866L8.77739 36.1614L3.92252 33.3503L5.97369 32.146ZM9.20361 36.8683L11.1516 35.7032V37.9351L9.20361 39.0707V36.8683ZM18.001 42.3563V41.8392V24.9432H17.9843H18.001L12.267 21.5856V19.3177L20.0988 23.86H20.1154V45.8153L12.3902 41.3843V39.0674L18.001 42.3563ZM20.9612 23.8567L28.5132 19.4748V21.7427L22.7826 25.1101H22.7659V41.6134V42.5297L23.5418 42.0749H23.6017V42.0388L28.4799 39.1623V41.4236L20.9645 45.727V23.86L20.9612 23.8567ZM32.1993 27.3027L34.68 28.7131V31.0661L30.1781 28.4906L32.1993 27.3027ZM29.0027 34.7019V37.8893L26.2822 36.2956L23.6184 37.8304V28.9782L26.1857 30.4312L29.0093 28.7491V32.0217L31.3402 33.3601L29.0027 34.7019ZM28.6064 28.0815L26.6552 29.2138V27.0114L28.6064 25.8497V28.0815ZM25.8194 29.2956L23.615 28.0292V25.6795L25.8194 26.9329V29.2956ZM23.615 38.7631L26.2989 37.2381L28.2302 38.3736L23.615 41.1127V38.7631ZM32.1527 32.8725L29.8385 31.5439V29.2531L34.1672 31.7173L32.1527 32.8725ZM26.3089 26.2751L24.311 25.1166L26.2756 23.9811L28.2934 25.1297L26.3089 26.2751ZM29.8385 35.6738L31.7897 36.8388V39.0379L29.8385 37.9057V35.6738ZM32.2026 36.1418L30.1648 34.9571L35.0163 32.1133L37.0575 33.3307L32.2026 36.1418ZM37.5037 32.6565L35.5058 31.5013V18.6599L37.5037 17.4818V32.6565ZM34.68 27.7772L32.2126 26.3569L29.4389 27.9932V24.8777L27.0914 23.5065L29.3623 22.1975V18.8596L32.2726 20.5973L34.6933 19.1606L34.68 27.7772ZM32.2026 16.4739L30.1648 15.2925L35.7689 12.02L35.5091 11.8694L30.1814 8.81946L32.0794 7.70352L39.7913 12.092L32.2026 16.4739ZM0.835782 34.7444V12.7759L8.36449 17.184V19.4486L2.65053 16.0812V16.9975V33.5041L8.36449 36.8519V39.123L0.829126 34.7509L0.835782 34.7444ZM32.6388 39.1067V36.8355L38.3528 33.4845V16.9844V16.0681L32.6388 19.4355V17.1709L40.1675 12.7628V34.7346L32.6388 39.1067Z" fill="black"/>
</svg>
