<svg width="151" height="173" viewBox="0 0 151 173" fill="none" xmlns="http://www.w3.org/2000/svg">
<path d="M150.975 43.4849L118.293 24.8984L108.421 30.5719V18.9479L75.6042 0L42.6033 19.1526V30.6563L32.6699 24.9707L0 43.5572V129.455L32.1548 148.27L42.6033 142.043V154.088L75.592 173L107.98 154.209H108.041V141.814L118.833 148.246L151 129.431V43.4849H150.975ZM20.1611 68.7808V116.048L12.8031 120.312V64.3962L20.1611 68.7808ZM117.042 71.3465L109.893 67.1306V58.9154L117.079 63.2037L117.042 71.3465ZM75.6165 85.4279L47.1162 68.7567L54.4743 64.348L72.6242 74.8639L75.5675 76.5623L96.4154 64.5166L103.859 68.8892L75.6165 85.4279ZM33.9207 63.2639L41.0949 58.9756V67.1908L33.9207 71.3706V63.2639ZM98.1935 34.9445V26.8498L105.355 22.5616V30.7767L98.1935 34.9445ZM95.1154 35.1975L77.2108 24.8502V16.358L95.0909 26.8257L95.1154 35.1975ZM77.2108 72.2138V28.1628L83.8943 32.0897V68.3351L77.2108 72.2138ZM74.1204 28.1748V72.3825L66.3085 67.8051V32.7522L74.1204 28.1748ZM74.1204 16.3701V24.8021L55.9459 35.33V27.0185L74.1204 16.3701ZM52.8555 27.0305V35.1252L45.6814 30.9935V22.7422L52.8555 27.0305ZM41.0703 43.7138L32.4859 48.6525L25.0543 44.3642L41.0949 35.2457L41.0703 43.7138ZM44.1362 45.4122V33.4027L54.5847 39.6303L63.1691 34.5711V66.0344L54.5847 60.9873L44.1239 67.0101V55.374L35.4291 50.363L44.1362 45.4122ZM106.815 55.3378V67.1908L96.3908 61.0836L86.9602 66.5524V33.8965L96.4154 39.4255L106.815 33.234V45.364L115.497 50.3268L106.815 55.3378ZM118.502 48.6043L109.917 43.6535V35.2216L125.958 44.3401L118.502 48.6043ZM96.6361 24.2841L75.6042 12.1782L54.4007 24.4648L46.8832 20.1524L75.6656 3.28847L104.141 19.9356L96.6361 24.2841ZM20.1734 43.7017L19.2291 44.2438L39.8563 56.2895L32.3265 60.7102L4.39032 44.5088L32.7925 28.3555L39.7827 32.4631L20.1734 43.7017ZM32.1548 75.8516L42.1127 69.9131V81.0915L51.5311 86.5361L42.6033 91.6556L42.6646 91.7278H42.6033V103.099L32.3265 97.0761L23.2515 102.292V70.5636L32.1548 75.8516ZM47.1898 141.211L54.2781 136.995L63.2304 142.091V150.74L47.1898 141.211ZM32.3265 100.545L39.7704 104.93L23.2025 114.398V105.749L32.3265 100.545ZM63.1814 103.798L55.8969 107.977V99.2925L63.1814 95.1368V103.798ZM52.8555 99.6539V107.761L45.6814 103.593V95.3777L52.8555 99.6539ZM41.0703 107.749V116.181L32.5472 121.071L25.1278 116.783L41.0703 107.749ZM44.1362 117.915V106.014L54.5847 112.242L63.1691 107.327V138.646L54.4007 133.599L44.1362 139.549V127.781L35.5518 122.794L44.1362 117.915ZM54.1064 96.9436L46.8587 92.7156L54.5602 88.343L61.7588 92.4265L54.1064 96.9436ZM22.0007 118.325L39.8685 128.78L32.3265 133.105L14.4464 122.757L22.0007 118.325ZM33.8962 135.707L41.0703 131.418V139.633L33.8962 143.813V135.707ZM66.2963 155.907V154.004V91.8122H66.235H66.2963L45.1786 79.4533V71.1056L74.0223 87.825H74.0836V168.639L45.6324 152.33V143.801L66.2963 155.907ZM77.1985 87.813L105.012 71.6838V80.0315L83.9066 92.4265H83.8453V153.173V156.546L86.7027 154.871H86.9234V154.739L104.889 144.151V152.474L77.2108 168.314V87.825L77.1985 87.813ZM118.588 100.497L127.724 105.689V114.35L111.144 104.87L118.588 100.497ZM106.815 127.732V139.465L96.7955 133.599L86.9847 139.248V106.664L96.4399 112.013L106.839 105.821V117.867L115.424 122.794L106.815 127.732ZM105.355 103.364L98.169 107.532V99.425L105.355 95.1488V103.364ZM95.0909 107.833L86.9725 103.171V94.5224L95.0909 99.1359V107.833ZM86.9725 142.681L96.8568 137.068L103.97 141.248L86.9725 151.33V142.681ZM118.416 120.999L109.893 116.108V107.676L125.835 116.747L118.416 120.999ZM96.8936 96.7147L89.5355 92.4506L96.771 88.2707L104.203 92.4987L96.8936 96.7147ZM109.893 131.31L117.079 135.598V143.693L109.893 139.525V131.31ZM118.6 133.032L111.095 128.672L128.963 118.204L136.48 122.685L118.6 133.032ZM138.123 120.204L130.765 115.952V68.6845L138.123 64.348V120.204ZM127.724 102.244L118.637 97.0159L108.421 103.039V91.5712L99.7755 86.5241L108.139 81.7058V69.4192L118.857 75.8155L127.773 70.5275L127.724 102.244ZM118.6 60.6379L111.095 56.2895L131.734 44.2438L130.778 43.6897L111.156 32.4631L118.146 28.3555L146.548 44.5088L118.6 60.6379ZM3.07812 127.889V47.0263L30.8058 63.2519V71.5875L9.76172 59.1925V62.5652V123.324L30.8058 135.646V144.006L3.05361 127.913L3.07812 127.889ZM120.206 143.946V135.586L141.251 123.251V62.5171V59.1443L120.206 71.5393V63.2037L147.934 46.9781V127.853L120.206 143.946Z" fill="white"/>
</svg>
