<svg width="24" height="24" viewBox="0 0 24 24" fill="none" xmlns="http://www.w3.org/2000/svg">
<g clip-path="url(#clip0)">
<path d="M17.5071 14.307L17.4981 14.382C15.2991 13.286 15.0691 13.14 14.7851 13.566C14.5881 13.861 14.0141 14.53 13.8411 14.728C13.6661 14.923 13.4921 14.938 13.1951 14.803C12.8951 14.653 11.9321 14.338 10.7921 13.318C9.90414 12.523 9.30814 11.548 9.13214 11.248C8.83914 10.742 9.45214 10.67 10.0101 9.61405C10.1101 9.40405 10.0591 9.23905 9.98514 9.09005C9.91014 8.94005 9.31314 7.47005 9.06314 6.88405C8.82314 6.30005 8.57614 6.37405 8.39114 6.37405C7.81514 6.32405 7.39414 6.33205 7.02314 6.71805C5.40914 8.49205 5.81614 10.322 7.19714 12.268C9.91114 15.82 11.3571 16.474 14.0011 17.382C14.7151 17.609 15.3661 17.577 15.8811 17.503C16.4551 17.412 17.6481 16.782 17.8971 16.077C18.1521 15.372 18.1521 14.787 18.0771 14.652C18.0031 14.517 17.8071 14.442 17.5071 14.307Z" fill="black"/>
<path d="M20.52 3.44736C12.831 -3.98564 0.106 1.40536 0.101 11.8914C0.101 13.9874 0.65 16.0314 1.696 17.8364L0 23.9984L6.335 22.3464C14.24 26.6164 23.996 20.9464 24 11.8974C24 8.72136 22.76 5.73236 20.505 3.48636L20.52 3.44736ZM22.002 11.8644C21.996 19.4974 13.617 24.2644 6.99 20.3684L6.63 20.1544L2.88 21.1294L3.885 17.4844L3.646 17.1094C-0.478 10.5444 4.26 1.96436 12.072 1.96436C14.726 1.96436 17.217 2.99936 19.093 4.87436C20.968 6.73336 22.002 9.22436 22.002 11.8644Z" fill="black"/>
</g>
<defs>
<clipPath id="clip0">
<rect width="24" height="24" fill="white"/>
</clipPath>
</defs>
</svg>
