<svg width="43" height="43" viewBox="0 0 43 43" fill="none" xmlns="http://www.w3.org/2000/svg">
<path fill-rule="evenodd" clip-rule="evenodd" d="M20.8042 11.1095C15.0076 11.1095 10.3083 15.9691 10.3083 21.9633C10.3083 27.9565 15.0076 32.816 20.8042 32.816C26.5999 32.816 31.2991 27.9565 31.2991 21.9633C31.2991 15.9691 26.5999 11.1095 20.8042 11.1095ZM20.85 29.053C16.8333 29.053 13.5768 25.8993 13.5768 22.0083C13.5768 18.1173 16.8333 14.9627 20.85 14.9627C24.8666 14.9627 28.1221 18.1173 28.1221 22.0083C28.1221 25.8993 24.8666 29.053 20.85 29.053ZM35.7014 9.45612C35.7014 10.92 34.5399 12.1056 33.1058 12.1056C31.6727 12.1056 30.5102 10.92 30.5102 9.45612C30.5102 7.99329 31.6727 6.80664 33.1058 6.80664C34.5399 6.80664 35.7014 7.99329 35.7014 9.45612Z" fill="white"/>
<rect x="2" y="2" width="39.0442" height="39.0442" rx="5" stroke="white" stroke-width="3.5"/>
</svg>
