<svg width="81" height="81" viewBox="0 0 81 81" fill="none" xmlns="http://www.w3.org/2000/svg">
<path fill-rule="evenodd" clip-rule="evenodd" d="M0.680786 12.9172C0.680786 5.91159 6.35993 0.232422 13.3655 0.232422H67.946C74.9516 0.232422 80.6308 5.91157 80.6308 12.9172V67.4977C80.6308 74.5033 74.9516 80.1824 67.946 80.1824H13.3655C6.35996 80.1824 0.680786 74.5033 0.680786 67.4977V12.9172ZM13.3655 6.80969C9.99247 6.80969 7.25806 9.54411 7.25806 12.9172V67.4977C7.25806 70.8707 9.99247 73.6051 13.3655 73.6051H67.946C71.3191 73.6051 74.0535 70.8707 74.0535 67.4977V12.9172C74.0535 9.5441 71.3191 6.80969 67.946 6.80969H13.3655Z" fill="white"/>
<path fill-rule="evenodd" clip-rule="evenodd" d="M59.5412 36.9513C62.0468 38.3979 62.0468 42.0145 59.5412 43.4611L32.7184 58.9473C30.2128 60.3939 27.0808 58.5856 27.0808 55.6924L27.0808 24.7201C27.0808 21.8269 30.2128 20.0186 32.7184 21.4652L59.5412 36.9513ZM53.9035 40.2062L32.7184 27.975L32.7184 52.4374L53.9035 40.2062Z" fill="white"/>
</svg>
