<svg width="407" height="312" viewBox="0 0 407 312" fill="none" xmlns="http://www.w3.org/2000/svg">
<path d="M0.812269 260.641H7.34427V309.205H0.812269V310.199H15.0123V309.205H8.48027V260.641H8.62227L26.1593 310.199H27.2953L44.7613 260.641H44.9033V309.205H38.4423V310.199H61.7303V309.205H55.1983V260.641H61.7303V259.647H43.9803L31.4843 295.005H31.3423L19.0593 259.647H0.812269V260.641Z" fill="black"/>
<path d="M68.9567 305.868C68.9567 308.637 71.2287 310.909 73.9977 310.909C76.7667 310.909 79.0387 308.637 79.0387 305.868C79.0387 303.099 76.7667 300.827 73.9977 300.827C71.2287 300.827 68.9567 303.099 68.9567 305.868Z" fill="black"/>
<path d="M88.3625 310.199H89.4985C89.9955 308.921 90.4215 308.566 91.6995 308.566C93.6165 308.566 99.7935 311.264 105.615 311.264C117.188 311.264 125.211 303.312 125.211 294.011C125.211 275.196 94.7525 281.515 94.7525 268.38C94.7525 264.191 98.9415 259.505 106.467 259.505C115.697 259.505 118.04 266.605 120.241 273.137H121.164V259.647H120.028C119.602 260.783 119.318 261.138 118.04 261.138C115.768 261.138 112.786 258.511 106.538 258.511C96.5275 258.511 89.4275 265.611 89.4275 273.137C89.4275 293.514 118.679 285.136 118.679 299.265C118.679 302.957 116.123 310.27 106.183 310.27C103.343 310.27 99.5095 310.27 95.1785 306.01C91.2735 302.176 89.8535 296.709 89.4275 294.437H88.3625V310.199Z" fill="black"/>
<path d="M137.1 279.74H132.343V280.734H137.1V302.602C137.1 306.01 137.1 311.193 147.04 311.193C150.59 311.193 155.276 310.199 156.483 303.738L155.418 303.525C154.637 306.436 153.075 309.773 149.525 309.773C146.259 309.773 145.762 307.288 145.762 304.519V280.734H154.069V279.74H145.762V270.581C144.342 271.149 142.851 271.575 141.431 271.575C140.011 271.575 138.52 271.149 137.1 270.581V279.74Z" fill="black"/>
<path d="M189.222 292.378C189.222 282.722 181.767 278.746 175.235 278.746C166.005 278.746 158.692 286.698 158.692 294.863C158.692 305.016 166.36 311.193 176.229 311.193C184.465 311.193 187.873 305.797 188.796 302.318L187.802 301.963C187.589 303.596 184.82 310.199 177.294 310.199C168.845 310.199 168.277 302.318 168.277 295.573V292.378H189.222ZM168.277 291.384C168.49 286.556 168.632 279.74 175.022 279.74C179.637 279.74 179.637 284.639 179.637 286.627V291.384H168.277Z" fill="black"/>
<path d="M198.878 279.74H194.121V280.734H198.878V302.602C198.878 306.01 198.878 311.193 208.818 311.193C212.368 311.193 217.054 310.199 218.261 303.738L217.196 303.525C216.415 306.436 214.853 309.773 211.303 309.773C208.037 309.773 207.54 307.288 207.54 304.519V280.734H215.847V279.74H207.54V270.581C206.12 271.149 204.629 271.575 203.209 271.575C201.789 271.575 200.298 271.149 198.878 270.581V279.74Z" fill="black"/>
<path d="M221.109 310.199H222.103C222.387 309.489 222.6 309.205 223.381 309.205C225.085 309.205 229.842 311.193 233.321 311.193C239.569 311.193 245.462 307.217 245.462 300.969C245.462 296.496 242.764 293.585 237.652 291.81L231.617 289.751C226.789 288.118 226.434 285.988 226.434 284.639C226.434 281.373 229.558 279.74 232.682 279.74C238.575 279.74 240.208 283.645 242.125 288.26H243.048V279.598H242.054C241.912 280.024 241.699 280.521 240.705 280.521C239.569 280.521 236.729 278.746 233.179 278.746C226.292 278.746 221.535 283.361 221.535 288.899C221.535 293.94 225.369 296.141 227.996 297.135L233.747 299.265C238.788 301.111 239.356 302.957 239.356 304.732C239.356 310.199 234.67 310.199 233.037 310.199C226.434 310.199 224.304 305.229 222.103 299.904H221.109V310.199Z" fill="black"/>
<path d="M281.231 292.378C281.231 282.722 273.776 278.746 267.244 278.746C258.014 278.746 250.701 286.698 250.701 294.863C250.701 305.016 258.369 311.193 268.238 311.193C276.474 311.193 279.882 305.797 280.805 302.318L279.811 301.963C279.598 303.596 276.829 310.199 269.303 310.199C260.854 310.199 260.286 302.318 260.286 295.573V292.378H281.231ZM260.286 291.384C260.499 286.556 260.641 279.74 267.031 279.74C271.646 279.74 271.646 284.639 271.646 286.627V291.384H260.286Z" fill="black"/>
<path d="M286.698 310.199H304.519V309.205H300.046V294.011C300.046 285.349 304.093 281.018 308.637 281.018C311.335 281.018 313.11 282.864 313.11 286.769V309.205H308.708V310.199H326.529V309.205H321.772V289.183C321.772 283.077 318.009 279.101 311.903 279.101C303.454 279.101 300.827 285.065 300.046 286.84H299.904V279.74H286.698V280.734H291.384V309.205H286.698V310.199Z" fill="black"/>
<path d="M330.922 260.002H335.608V309.205H330.922V310.199H348.672V309.205H344.27V293.869H344.625L356.624 309.205H351.512V310.199H370.327V309.205H367.558L351.299 288.26L359.251 280.734H363.795V279.74H352.648V280.734H357.831L344.625 292.875H344.27V259.008H330.922V260.002Z" fill="black"/>
<path d="M389.569 278.746C379.771 278.746 372.245 286.201 372.245 294.934C372.245 303.738 379.771 311.193 389.569 311.193C399.367 311.193 406.893 303.738 406.893 294.934C406.893 286.201 399.367 278.746 389.569 278.746ZM389.569 310.199C382.185 310.199 381.83 302.602 381.83 294.934C381.83 287.337 382.185 279.74 389.569 279.74C396.953 279.74 397.308 287.337 397.308 294.934C397.308 302.602 396.953 310.199 389.569 310.199Z" fill="black"/>
<path d="M80.3154 5.3438H106.818V202.385H80.3154V206.418H137.93V202.385H111.427V5.3438H112.003L183.164 205.085H187.773L258.632 5.3438H259.208V202.385H232.994V206.418H327.481V202.385H300.979V5.3438H327.481V1.31079H255.463L204.762 144.771H204.186L154.35 1.31079H80.3154V5.3438Z" fill="black"/>
<path fill-rule="evenodd" clip-rule="evenodd" d="M136.114 202.443H131.686V140.934H135.837C137.498 149.8 143.033 171.134 158.256 186.096C175.139 202.72 190.085 202.72 201.156 202.72C239.904 202.72 249.868 174.182 249.868 159.774C249.868 134.723 226.328 127.803 200.638 120.251C198.794 119.709 196.939 119.163 195.08 118.608L177.249 67.2724C186.036 71.6783 196.829 75.0132 208.005 78.4666C240.089 88.3804 275.331 99.2699 275.331 139.271C275.331 175.568 244.056 206.599 198.942 206.599C184.521 206.599 169.542 202.349 158.619 199.249C152.351 197.47 147.419 196.071 144.694 196.071C139.712 196.071 138.051 197.456 136.114 202.443ZM161.887 23.0455C168.89 12.7641 182.678 4.61483 202.263 4.61483C238.053 4.61483 247.28 32.0295 255.821 57.4076L255.957 57.8124H259.555V5.16898H255.127C253.466 9.60211 252.359 10.9875 247.377 10.9875C244.045 10.9875 240.322 9.53675 235.677 7.72678C227.973 4.72529 217.734 0.73584 202.54 0.73584C185.348 0.73584 170.359 6.11273 158.968 14.64L161.887 23.0455Z" fill="url(#paint0_linear)"/>
<defs>
<linearGradient id="paint0_linear" x1="92.626" y1="46.5912" x2="311.164" y2="193.568" gradientUnits="userSpaceOnUse">
<stop offset="0.120512" stop-color="#A4783F"/>
<stop offset="0.447917" stop-color="#FCC983"/>
<stop offset="0.850005" stop-color="#976F40"/>
</linearGradient>
</defs>
</svg>
