<svg width="155" height="175" viewBox="0 0 155 175" fill="none" xmlns="http://www.w3.org/2000/svg">
<g clip-path="url(#clip0)">
<path d="M10.4 46.7299H0V2.38989H10.4V46.7299Z" fill="white"/>
<path d="M27.3898 9.99997C26.8426 10.5623 26.1856 11.0061 25.4596 11.3038C24.7337 11.6014 23.9542 11.7465 23.1698 11.73C22.3938 11.739 21.624 11.5903 20.9072 11.293C20.1904 10.9956 19.5415 10.5557 18.9998 9.99997C18.4424 9.45581 18.0023 8.80338 17.7065 8.0828C17.4108 7.36223 17.2655 6.58876 17.2798 5.80997C17.2688 5.0435 17.4158 4.28298 17.7118 3.57585C18.0077 2.86873 18.4461 2.23016 18.9998 1.69997C19.5461 1.15245 20.1965 0.719935 20.9127 0.427954C21.6289 0.135974 22.3964 -0.00955215 23.1698 -3.17559e-05C23.9517 -0.017461 24.7289 0.124249 25.4544 0.416489C26.1798 0.708729 26.8383 1.1454 27.3898 1.69997C27.9497 2.23426 28.3926 2.879 28.6904 3.59337C28.9882 4.30773 29.1344 5.07615 29.1198 5.84997C29.1273 6.62278 28.9778 7.38907 28.6804 8.10241C28.3831 8.81576 27.944 9.46131 27.3898 9.99997ZM28.3898 46.69H17.9998V14.62H28.3998L28.3898 46.69Z" fill="white"/>
<path d="M68.4299 46.7299H57.9999V28.1899C57.9999 24.6432 56.2199 22.8699 52.6599 22.8699C51.4363 22.8679 50.2288 23.1495 49.1323 23.6926C48.0358 24.2356 47.08 25.0254 46.3399 25.9999V46.7299H35.9399V14.6199H46.3399V18.5499C49.0933 15.3965 52.8533 13.8232 57.6199 13.8299C61.2266 13.8299 63.9299 14.7499 65.7299 16.5899C66.6531 17.5814 67.3677 18.7482 67.8315 20.021C68.2953 21.2939 68.4988 22.6469 68.4299 23.9999V46.7299Z" fill="white"/>
<path d="M91.67 47.5301C86.965 47.6899 82.3832 46.0072 78.9 42.8401C77.2295 41.2895 75.9128 39.3972 75.0397 37.2919C74.1665 35.1866 73.7573 32.9178 73.84 30.6401C73.7635 28.3735 74.1758 26.117 75.0489 24.024C75.922 21.9309 77.2355 20.0504 78.9 18.5101C82.387 15.3503 86.967 13.6718 91.67 13.8301C94.5448 13.7363 97.4004 14.3294 100 15.5601C102.024 16.5036 103.778 17.941 105.1 19.7401L98.34 25.9201C97.6632 24.9263 96.7418 24.1237 95.6646 23.5894C94.5874 23.0552 93.3908 22.8075 92.19 22.8701C91.1631 22.8214 90.1375 22.9902 89.1804 23.3653C88.2232 23.7405 87.3561 24.3136 86.6358 25.0472C85.9155 25.7807 85.3582 26.6581 85.0005 27.6219C84.6428 28.5857 84.4927 29.6142 84.56 30.6401C84.508 31.6907 84.673 32.7408 85.0446 33.7249C85.4162 34.7091 85.9865 35.6061 86.72 36.3601C87.4411 37.0656 88.2973 37.618 89.2374 37.9841C90.1774 38.3501 91.1818 38.5223 92.19 38.4901C93.3963 38.5315 94.5933 38.2661 95.6689 37.7187C96.7446 37.1712 97.6636 36.3597 98.34 35.3601L105.1 41.6101C103.778 43.4122 102.024 44.853 100 45.8001C97.3988 47.026 94.5443 47.6189 91.67 47.5301Z" fill="white"/>
<path d="M139.57 47.5299C136.661 47.538 133.769 47.0892 131 46.1999C128.536 45.4792 126.248 44.257 124.28 42.6099L128.6 35.6099C130.177 36.9181 131.975 37.934 133.91 38.6099C135.874 39.4157 137.968 39.8563 140.09 39.9099C143.016 39.9099 144.48 39.0899 144.48 37.4499C144.48 36.6999 143.83 36.1299 142.48 35.7499C140.924 35.3238 139.345 34.9899 137.75 34.7499C135.864 34.4525 134.002 34.018 132.18 33.4499C130.329 32.8836 128.678 31.8013 127.42 30.3299C126.051 28.6952 125.338 26.6104 125.42 24.4799C125.412 23.0246 125.744 21.5874 126.388 20.2823C127.032 18.9771 127.97 17.8396 129.13 16.9599C131.61 14.9599 135.033 13.9599 139.4 13.9599C144.286 13.8857 149.069 15.3748 153.05 18.2099L149.05 24.9899C147.874 23.8727 146.501 22.9842 145 22.3699C143.279 21.6987 141.447 21.3594 139.6 21.3699C138.559 21.3207 137.524 21.5484 136.6 22.0299C136.272 22.1742 135.991 22.4068 135.788 22.7017C135.585 22.9967 135.468 23.3423 135.45 23.6999C135.45 24.3599 136.1 24.8599 137.45 25.1899C138.8 25.5199 140.33 25.8599 142.17 26.1899C144.062 26.5323 145.926 27.0102 147.75 27.6199C149.619 28.2382 151.271 29.3801 152.51 30.9099C153.875 32.6052 154.585 34.7347 154.51 36.9099C154.53 38.4209 154.175 39.9134 153.477 41.2537C152.779 42.5939 151.759 43.7402 150.51 44.5899C147.81 46.5499 144.163 47.5299 139.57 47.5299Z" fill="white"/>
</g>
<path d="M100.22 96.93L127.35 97.2L127.26 105.5L100.14 105.23L100.22 96.93ZM99.0001 95.72L98.8901 106.42L128.41 106.71L128.52 96.01L99.0001 95.72Z" fill="white"/>
<path d="M112 42.43L111.76 69C111.004 69.3584 110.344 69.8924 109.836 70.5575C109.328 71.2226 108.987 71.9994 108.84 72.8234C108.693 73.6473 108.745 74.4943 108.993 75.2939C109.24 76.0935 109.674 76.8224 110.26 77.42C110.746 77.9207 111.327 78.3186 111.97 78.5901C112.612 78.8615 113.303 79.0009 114 79C115.198 79.0161 116.365 78.6228 117.309 77.8852C118.253 77.1476 118.917 76.1099 119.191 74.9438C119.465 73.7776 119.333 72.5528 118.816 71.472C118.3 70.3912 117.43 69.5191 116.35 69L116.62 42.45L136.29 73L127.8 92.59L113.8 92.45L99.8001 92.31L91.7601 72.52L112 42.43ZM111.37 41.22L90.3701 72.38L99.0601 93.5L113.82 93.65L128.58 93.8L137.65 72.8L117.29 41.28H115.45L115.16 69.85C116.139 70.0894 116.994 70.6843 117.559 71.5191C118.123 72.3539 118.357 73.3688 118.215 74.3665C118.073 75.3643 117.565 76.2735 116.789 76.9173C116.014 77.5611 115.027 77.8936 114.02 77.85C113.027 77.855 112.067 77.4958 111.32 76.8405C110.574 76.1851 110.094 75.279 109.971 74.2936C109.848 73.3082 110.09 72.3118 110.652 71.493C111.214 70.6741 112.056 70.0896 113.02 69.85L113.31 41.28H111.46L111.37 41.22Z" fill="white"/>
<path d="M99.8301 109.84L106.63 109.91L114 125.33L109.1 133.21L108.8 133.69L108.98 134.23L113.79 148.42L111.96 150.73L108.13 155.79L109.7 146.2L109.8 145.64L109.43 145.22L100.67 135.16L99.1101 133.38L98.5901 135.69L98.4701 136.22L95.5701 125.92L99.8501 109.84H99.8301ZM98.9301 108.63L94.3301 125.93L98.6001 141.11L99.7401 136L108.5 146L106.14 160.37L112.9 151.45L115.12 148.65L110.12 133.84L115.37 125.4L107.42 108.72L98.9301 108.63Z" fill="white"/>
<path d="M111.78 110L127.53 110.16L130.87 121.48L116.87 134.18L116.49 134.53V135L116.38 142L113.84 134L118.84 126L119.19 125.45L118.91 124.85L111.78 109.85V110ZM109.87 108.63L117.82 125.32L112.57 133.76L117.51 149.31L117.73 134.91L132.24 121.71L128.43 108.82L109.87 108.63Z" fill="white"/>
<path d="M129.67 128.25L128.46 131.25L121.13 147.72L120.93 148.17L121.1 148.62L121.84 150.62L120.65 149.62L120.99 136.36L129.67 128.23V128.25ZM132.8 123.65L119.8 135.83L119.43 150.15L124.55 154.6L122.22 148.21L129.55 131.74L132.79 123.65H132.8Z" fill="white"/>
<path d="M101.09 142.23L105.19 146.64L103.26 158.13L100.61 144.13L101.09 142.21V142.23ZM100.47 139.77L99.3799 144.09L103.38 164.94L106.52 146.24L100.52 139.77H100.47Z" fill="white"/>
<path d="M116.73 152.19L122.41 156.52L112.41 160.75L111.41 161.19L111.78 162.25L113.99 168.59L108.85 162.11L116.75 152.19H116.73ZM116.55 150.52L107.31 162.11L117.46 174.88L112.91 161.88L124.8 156.88L116.55 150.58V150.52Z" fill="white"/>
<path d="M114.03 38.3199C118.509 38.3199 122.14 34.6889 122.14 30.2099C122.14 25.7308 118.509 22.0999 114.03 22.0999C109.551 22.0999 105.92 25.7308 105.92 30.2099C105.92 34.6889 109.551 38.3199 114.03 38.3199Z" stroke="white" stroke-width="1.2" stroke-miterlimit="10"/>
<defs>
<clipPath id="clip0">
<rect width="154.43" height="174.88" fill="white"/>
</clipPath>
</defs>
</svg>
