<svg width="48" height="154" viewBox="0 0 48 154" fill="none" xmlns="http://www.w3.org/2000/svg">
<path d="M10.2201 75.93L37.3501 76.2L37.2601 84.5L10.1401 84.23L10.2201 75.93ZM9.00014 74.72L8.89014 85.42L38.4101 85.71L38.5201 75.01L9.00014 74.72Z" fill="white"/>
<path d="M22.0001 21.43L21.7601 48C21.0039 48.3584 20.3443 48.8924 19.8363 49.5575C19.3283 50.2226 18.9867 50.9994 18.8399 51.8234C18.6931 52.6473 18.7455 53.4943 18.9925 54.2939C19.2395 55.0935 19.6742 55.8224 20.2601 56.42C20.7457 56.9207 21.327 57.3186 21.9695 57.5901C22.6121 57.8615 23.3026 58.0009 24.0001 58C25.198 58.0161 26.3654 57.6228 27.3093 56.8852C28.2533 56.1476 28.9172 55.1099 29.1913 53.9438C29.4653 52.7776 29.3331 51.5528 28.8165 50.472C28.2998 49.3912 27.4297 48.5191 26.3501 48L26.6201 21.45L46.2901 52L37.8001 71.59L23.8001 71.45L9.80012 71.31L1.76012 51.52L22.0001 21.43ZM21.3701 20.22L0.370117 51.38L9.06011 72.5L23.8201 72.65L38.5801 72.8L47.6501 51.8L27.2901 20.28H25.4501L25.1601 48.85C26.1391 49.0894 26.994 49.6843 27.5587 50.5191C28.1233 51.3539 28.3573 52.3688 28.2151 53.3665C28.0729 54.3643 27.5648 55.2735 26.7894 55.9173C26.0141 56.5611 25.027 56.8936 24.0201 56.85C23.027 56.855 22.0666 56.4958 21.3204 55.8405C20.5743 55.1851 20.0942 54.279 19.9711 53.2936C19.8479 52.3082 20.0901 51.3118 20.652 50.493C21.2139 49.6741 22.0564 49.0896 23.0201 48.85L23.3101 20.28H21.4601L21.3701 20.22Z" fill="white"/>
<path d="M9.83008 88.8399L16.6301 88.9099L24.0001 104.33L19.1001 112.21L18.8001 112.69L18.9801 113.23L23.7901 127.42L21.9601 129.73L18.1301 134.79L19.7001 125.2L19.8001 124.64L19.4301 124.22L10.6701 114.16L9.11008 112.38L8.59007 114.69L8.47008 115.22L5.57008 104.92L9.85007 88.8399H9.83008ZM8.93008 87.6299L4.33008 104.93L8.60007 120.11L9.74007 115L18.5001 125L16.1401 139.37L22.9001 130.45L25.1201 127.65L20.1201 112.84L25.3701 104.4L17.4201 87.7199L8.93008 87.6299Z" fill="white"/>
<path d="M21.7801 88.9999L37.5301 89.1599L40.8701 100.48L26.8701 113.18L26.4901 113.53V114L26.3801 121L23.8401 113L28.8401 105L29.1901 104.45L28.9101 103.85L21.7801 88.8499V88.9999ZM19.8701 87.6299L27.8201 104.32L22.5701 112.76L27.5101 128.31L27.7301 113.91L42.2401 100.71L38.4301 87.8199L19.8701 87.6299Z" fill="white"/>
<path d="M39.6702 107.25L38.4602 110.25L31.1302 126.72L30.9302 127.17L31.1002 127.62L31.8402 129.62L30.6502 128.62L30.9902 115.36L39.6702 107.23V107.25ZM42.8002 102.65L29.8002 114.83L29.4302 129.15L34.5502 133.6L32.2202 127.21L39.5502 110.74L42.7902 102.65H42.8002Z" fill="white"/>
<path d="M11.0899 121.23L15.1899 125.64L13.2599 137.13L10.6099 123.13L11.0899 121.21V121.23ZM10.4699 118.77L9.37988 123.09L13.3799 143.94L16.5199 125.24L10.5199 118.77H10.4699Z" fill="white"/>
<path d="M26.7301 131.19L32.4101 135.52L22.4101 139.75L21.4101 140.19L21.7801 141.25L23.9901 147.59L18.8501 141.11L26.7501 131.19H26.7301ZM26.5501 129.52L17.3101 141.11L27.4601 153.88L22.9101 140.88L34.8001 135.88L26.5501 129.58V129.52Z" fill="white"/>
<path d="M24.0299 17.3199C28.509 17.3199 32.1399 13.6889 32.1399 9.20985C32.1399 4.73082 28.509 1.09985 24.0299 1.09985C19.5509 1.09985 15.9199 4.73082 15.9199 9.20985C15.9199 13.6889 19.5509 17.3199 24.0299 17.3199Z" stroke="white" stroke-width="1.2" stroke-miterlimit="10"/>
</svg>
