<svg width="69" height="58" viewBox="0 0 69 58" fill="none" xmlns="http://www.w3.org/2000/svg">
<path fill-rule="evenodd" clip-rule="evenodd" d="M0.89502 37.1257H68.4039L58.1147 0.915955H11.1842L0.89502 37.1257ZM3.39573 35.3052H65.9032L56.6486 2.73647H12.6503L3.39573 35.3052Z" fill="black"/>
<path fill-rule="evenodd" clip-rule="evenodd" d="M2.80488 55.8099V37.1257H0.890137V57.6304H68.3993V37.1257H66.4845V55.8099H2.80488Z" fill="black"/>
<path d="M63.285 43.0495C63.285 44.3907 62.1414 45.4779 60.7309 45.4779C59.3203 45.4779 58.1768 44.3907 58.1768 43.0495C58.1768 41.7083 59.3203 40.6211 60.7309 40.6211C62.1414 40.6211 63.285 41.7083 63.285 43.0495Z" fill="#D71212"/>
<line x1="6.15625" y1="42.6689" x2="32.2205" y2="42.6689" stroke="#D71212" stroke-width="1.5"/>
<line x1="6.15625" y1="47.8116" x2="23.8382" y2="47.8116" stroke="#D71212" stroke-width="1.5"/>
</svg>
