<svg width="64" height="73" viewBox="0 0 64 73" fill="none" xmlns="http://www.w3.org/2000/svg">
<path fill-rule="evenodd" clip-rule="evenodd" d="M36.5985 32.9061C37.08 33.498 37.3933 34.3718 37.5606 35.4748L37.5612 35.479C38.053 38.8235 37.5346 42.5281 36.4186 46.2045C37.7002 48.7295 39.7148 51.289 42.8697 53.3784C47.7599 52.8322 51.4209 53.1086 53.0775 53.3013C54.6503 53.4844 55.717 54.0515 56.3053 54.8987C56.8865 55.7359 56.875 56.6691 56.6581 57.3127C56.336 58.2687 55.369 58.9819 53.7106 59.071C52.0989 59.1576 49.6698 58.6848 45.9817 57.1923L45.9703 57.1877L45.9703 57.1876C44.6629 56.6389 43.4795 56.0268 42.4087 55.3659C39.0372 55.7876 35.0961 56.6177 30.8439 58.1574C29.4084 60.4508 27.8732 62.5425 26.3683 64.2994L26.3629 64.3057L26.3574 64.3119C24.1663 66.7824 22.3075 67.8932 20.7788 68.1377C19.2022 68.39 18.0355 67.6959 17.5487 66.7929C17.1216 66.0008 17.1858 64.8627 17.7627 63.7524C18.3542 62.6137 19.5099 61.4253 21.4487 60.3775C24.2222 58.8103 26.9438 57.5675 29.5589 56.5852C30.8094 54.5344 31.9723 52.3281 32.949 50.0676C33.4817 48.8349 33.9558 47.5933 34.358 46.3581C32.0801 41.39 32.2749 36.706 32.341 35.5633C32.3881 34.7501 32.6155 34.0031 32.9734 33.4099C33.3197 32.836 33.8535 32.3074 34.5574 32.1387C35.3442 31.9502 36.0816 32.2707 36.5985 32.9061ZM35.2151 43.2506C35.8049 40.6098 36.0002 38.0606 35.6623 35.7605C35.519 34.8169 35.2827 34.3305 35.1094 34.1175C35.0694 34.0683 35.0372 34.0392 35.016 34.023C35.0072 34.0162 35.0002 34.0116 34.995 34.0085C34.9496 34.0254 34.7935 34.1091 34.617 34.4016C34.4363 34.7011 34.2883 35.1397 34.2574 35.6741C34.2054 36.5742 34.0778 39.6531 35.2151 43.2506ZM35.5891 48.651C35.3157 49.3826 35.022 50.1097 34.7112 50.829C34.0037 52.4663 33.2027 54.0755 32.342 55.6218C35.1117 54.7434 37.7304 54.1495 40.1268 53.7565C38.1686 52.1811 36.6956 50.4297 35.5891 48.651ZM27.7254 59.3957C25.9793 60.1513 24.1938 61.0308 22.3852 62.0532L22.377 62.0578L22.3687 62.0623C20.669 62.9794 19.8374 63.9226 19.4661 64.6373C19.0792 65.3821 19.2055 65.8209 19.2383 65.8819L18.395 66.3366L19.2383 65.8819C19.3035 66.0028 19.6314 66.3773 20.4755 66.2422C21.3668 66.0997 22.853 65.3685 24.9158 63.0444C25.8493 61.954 26.7975 60.7258 27.7254 59.3957ZM45.8823 55.0515C46.1512 55.1758 46.4262 55.2971 46.7075 55.4152C50.3032 56.8698 52.4176 57.2181 53.6076 57.1542C54.1918 57.1228 54.5022 56.9947 54.6544 56.8977C54.7966 56.8072 54.8298 56.7271 54.839 56.6997C54.8982 56.524 54.9033 56.2454 54.7285 55.9935C54.5606 55.7517 54.0982 55.3527 52.8556 55.2081C51.6282 55.0652 49.1795 54.8682 45.8823 55.0515Z" fill="#D71212"/>
<path fill-rule="evenodd" clip-rule="evenodd" d="M34.5444 15.5937H1.91959V26.568H34.5444V15.5937ZM0 13.6741V28.4876H36.464V13.6741H0Z" fill="black"/>
<path d="M9.90085 24.2319H8.25V17.83H11.4557C12.1468 17.83 12.6907 18.0348 13.0874 18.4443C13.4841 18.8474 13.6824 19.3529 13.6824 19.9608C13.6824 20.5622 13.4841 21.0677 13.0874 21.4772C12.6907 21.8804 12.1468 22.0819 11.4557 22.0819H9.90085V24.2319ZM11.235 20.6422C11.4589 20.6422 11.6413 20.5814 11.782 20.4599C11.9292 20.3383 12.0028 20.1719 12.0028 19.9608C12.0028 19.7432 11.9292 19.5736 11.782 19.4521C11.6413 19.3305 11.4589 19.2697 11.235 19.2697H9.90085V20.6422H11.235Z" fill="#D71212"/>
<path d="M17.8823 24.2319H15.1853V17.83H17.8727C18.8965 17.83 19.7283 18.118 20.3682 18.6938C21.0144 19.2697 21.3376 20.0471 21.3376 21.0261C21.3376 22.0051 21.0144 22.7858 20.3682 23.368C19.7283 23.9439 18.8997 24.2319 17.8823 24.2319ZM17.8727 22.7922C18.4166 22.7922 18.8485 22.6226 19.1684 22.2835C19.4884 21.9379 19.6483 21.5188 19.6483 21.0261C19.6483 20.5078 19.4948 20.0855 19.1876 19.7592C18.8805 19.4329 18.4454 19.2697 17.8823 19.2697H16.8361V22.7922H17.8727Z" fill="#D71212"/>
<path d="M24.5775 24.2319H22.9266V17.83H27.62V19.2697H24.5775V20.2679H27.5528V21.7076H24.5775V24.2319Z" fill="#D71212"/>
<path fill-rule="evenodd" clip-rule="evenodd" d="M49.0724 1.91959V15.6772H61.8926V71.0084H11.0358V28.4876H9.11621V72.928H63.8122V14.7174L50.0322 0H9.11621V13.6741H11.0358V1.91959H49.0724ZM50.992 3.83365L60.2839 13.7576H50.992V3.83365Z" fill="black"/>
</svg>
