<svg width="84" height="70" viewBox="0 0 84 70" fill="none" xmlns="http://www.w3.org/2000/svg">
<path fill-rule="evenodd" clip-rule="evenodd" d="M37.7886 8.48053H74.5367L82.9982 49.2887L81.1718 49.6674L73.0185 10.3457H39.6538V51.7427H51.4999V53.6079H37.7886V8.48053Z" fill="black"/>
<path fill-rule="evenodd" clip-rule="evenodd" d="M39.3204 41.1739H24.4648V39.3087H39.3204V41.1739ZM31.9145 51.7427H44.6438V53.6079H31.9145V51.7427Z" fill="black"/>
<path fill-rule="evenodd" clip-rule="evenodd" d="M16.3389 67.5561C24.2365 67.5561 30.6388 61.1538 30.6388 53.2562C30.6388 45.3586 24.2365 38.9563 16.3389 38.9563C8.44131 38.9563 2.03903 45.3586 2.03903 53.2562C2.03903 61.1538 8.44131 67.5561 16.3389 67.5561ZM16.3389 69.4213C25.2667 69.4213 32.504 62.1839 32.504 53.2562C32.504 44.3284 25.2667 37.0911 16.3389 37.0911C7.41119 37.0911 0.173828 44.3284 0.173828 53.2562C0.173828 62.1839 7.41119 69.4213 16.3389 69.4213Z" fill="black"/>
<path fill-rule="evenodd" clip-rule="evenodd" d="M67.3214 67.5561C75.219 67.5561 81.6212 61.1538 81.6212 53.2562C81.6212 45.3586 75.219 38.9563 67.3214 38.9563C59.4237 38.9563 53.0215 45.3586 53.0215 53.2562C53.0215 61.1538 59.4237 67.5561 67.3214 67.5561ZM67.3214 69.4213C76.2491 69.4213 83.4865 62.1839 83.4865 53.2562C83.4865 44.3284 76.2491 37.0911 67.3214 37.0911C58.3936 37.0911 51.1562 44.3284 51.1562 53.2562C51.1562 62.1839 58.3936 69.4213 67.3214 69.4213Z" fill="black"/>
<path fill-rule="evenodd" clip-rule="evenodd" d="M16.3391 60.0952C20.1162 60.0952 23.1781 57.0333 23.1781 53.2562C23.1781 49.479 20.1162 46.4171 16.3391 46.4171C12.5619 46.4171 9.49997 49.479 9.49997 53.2562C9.49997 57.0333 12.5619 60.0952 16.3391 60.0952ZM16.3391 61.9604C21.1463 61.9604 25.0433 58.0634 25.0433 53.2562C25.0433 48.4489 21.1463 44.5519 16.3391 44.5519C11.5318 44.5519 7.63477 48.4489 7.63477 53.2562C7.63477 58.0634 11.5318 61.9604 16.3391 61.9604Z" fill="#D71212"/>
<path fill-rule="evenodd" clip-rule="evenodd" d="M67.321 60.0952C71.0981 60.0952 74.1601 57.0333 74.1601 53.2562C74.1601 49.479 71.0981 46.4171 67.321 46.4171C63.5439 46.4171 60.4819 49.479 60.4819 53.2562C60.4819 57.0333 63.5439 60.0952 67.321 60.0952ZM67.321 61.9604C72.1282 61.9604 76.0253 58.0634 76.0253 53.2562C76.0253 48.4489 72.1282 44.5519 67.321 44.5519C62.5137 44.5519 58.6167 48.4489 58.6167 53.2562C58.6167 58.0634 62.5137 61.9604 67.321 61.9604Z" fill="#D71212"/>
<path fill-rule="evenodd" clip-rule="evenodd" d="M46.1821 3.51733L46.1821 24.6563L44.3169 24.6563L44.3169 3.51733L46.1821 3.51733Z" fill="#D71212"/>
<path fill-rule="evenodd" clip-rule="evenodd" d="M78.9054 32.7923L62.9971 32.7923L62.9971 30.9271L78.9054 30.9271L78.9054 32.7923Z" fill="black"/>
<path fill-rule="evenodd" clip-rule="evenodd" d="M62.997 32.7922L59.2105 9.41313L61.0518 9.11493L64.8382 32.494L62.997 32.7922Z" fill="black"/>
<path fill-rule="evenodd" clip-rule="evenodd" d="M44.8627 4.83596L41.3457 1.3189L42.6646 0L46.1816 3.51706L44.8627 4.83596Z" fill="#D71212"/>
</svg>
