<svg width="81" height="81" viewBox="0 0 81 81" fill="none" xmlns="http://www.w3.org/2000/svg">
<path d="M40.7504 13.5322L46.4974 31.2198L46.722 31.9108H47.4485H66.0464L51.0004 42.8424L50.4126 43.2694L50.6371 43.9604L56.3842 61.648L41.3382 50.7165L40.7504 50.2894L40.1626 50.7165L25.1166 61.648L30.8636 43.9604L31.0882 43.2694L30.5004 42.8424L15.4544 31.9108H34.0523H34.7788L35.0033 31.2198L40.7504 13.5322Z" stroke="#D71212" stroke-width="2"/>
<path d="M22.2336 14.6407L40.7506 1.23457L59.2675 14.6407L59.2702 14.6426L77.7423 28.1106L70.7143 49.864L70.7133 49.8672L63.6127 71.597L40.7522 71.6352H40.7489L17.8884 71.597L10.7878 49.8672L10.7868 49.864L3.75885 28.1106L22.2309 14.6426L22.2336 14.6407Z" stroke="black" stroke-width="2"/>
</svg>
