<svg width="40" height="37" viewBox="0 0 40 37" fill="none" xmlns="http://www.w3.org/2000/svg">
<path fill-rule="evenodd" clip-rule="evenodd" d="M3.28569 4.36744C4.10504 2.9627 5.93089 2.46775 7.37171 3.29115C8.81253 4.11456 9.29241 5.92721 8.47306 7.33195C7.65371 8.73669 5.82786 9.23165 4.38704 8.40824C2.94622 7.58483 2.46634 5.77218 3.28569 4.36744ZM1.54925 3.37509C2.92996 1.00792 5.98791 0.196866 8.37937 1.56355C10.7708 2.93024 11.5902 5.95713 10.2095 8.3243C10.1782 8.378 10.146 8.4309 10.113 8.483L39.0891 34.012H39.5V36.012H38.7114H38.3337L38.0503 35.7624L8.72178 9.92281C7.18215 10.974 5.10687 11.1231 3.37937 10.1358C0.987912 8.76915 0.168536 5.74226 1.54925 3.37509Z" fill="#767676"/>
</svg>
