<svg width="29" height="31" viewBox="0 0 29 31" fill="none" xmlns="http://www.w3.org/2000/svg">
<path fill-rule="evenodd" clip-rule="evenodd" d="M16.5913 25.5124L17.2551 25.3117C18.8717 24.8231 20.3232 23.9455 21.5021 22.7854L22.0053 22.2903L25.0745 23.7916L27.1281 20.173L24.2377 18.2308L24.3834 17.5578C24.5391 16.8386 24.6214 16.0907 24.6214 15.3223C24.6214 14.5096 24.5294 13.7198 24.3557 12.9625L24.2013 12.2895L27.1017 10.2997L25.0136 6.70114L21.915 8.25416L21.4073 7.76707C20.2457 6.65263 18.8286 5.80856 17.2552 5.33291L16.5913 5.13222L16.3478 1.53176L12.213 1.53176L11.9696 5.13222L11.3057 5.33291C9.7829 5.79323 8.40662 6.5986 7.26657 7.6602L6.76505 8.12721L3.38657 6.47465L1.333 10.0933L4.4 12.1541L4.23377 12.841C4.04156 13.6352 3.93941 14.4661 3.93941 15.3223C3.93941 16.2043 4.04778 17.0593 4.25135 17.8752L4.42196 18.559L1.4041 20.6294L3.49214 24.2279L6.80996 22.565L7.31619 23.0303C8.44647 24.0693 9.80493 24.8581 11.3057 25.3117L11.9696 25.5124L12.213 29.1129L16.3478 29.1129L16.5913 25.5124ZM11.2782 30.1219L17.2826 30.1219L17.5425 26.2783C19.3172 25.7418 20.9091 24.7789 22.2011 23.5076L25.4788 25.1109L28.4609 19.856L25.3611 17.7731C25.5321 16.9836 25.6221 16.1636 25.6221 15.3223C25.6221 14.4325 25.5214 13.5665 25.3307 12.7351L28.4375 10.6037L25.4053 5.37798L22.0971 7.03604C20.8241 5.81469 19.2699 4.88852 17.5425 4.36635L17.2826 0.522697L11.2782 0.522696L11.0183 4.36635C9.34656 4.87169 7.83707 5.75542 6.58762 6.91889L2.98227 5.15535L0.000117635 10.4102L3.26156 12.6017C3.05054 13.4737 2.93866 14.3848 2.93866 15.3223C2.93866 16.288 3.05736 17.2257 3.28084 18.1214L0.0682513 20.3254L3.10046 25.5511L6.64201 23.7761C7.88078 24.9147 9.37074 25.7803 11.0183 26.2783L11.2782 30.1219Z" fill="black"/>
<path fill-rule="evenodd" clip-rule="evenodd" d="M14.23 9.46756C10.9964 9.46756 8.37515 12.0888 8.37515 15.3224C8.37515 18.5559 10.9964 21.1772 14.23 21.1772C17.4635 21.1772 20.0847 18.5559 20.0847 15.3224C20.0847 12.0888 17.4635 9.46756 14.23 9.46756ZM14.23 8.49176C10.4575 8.49176 7.39935 11.5499 7.39935 15.3224C7.39935 19.0948 10.4575 22.153 14.2299 22.153C18.0024 22.153 21.0605 19.0948 21.0605 15.3224C21.0605 11.5499 18.0024 8.49176 14.23 8.49176Z" fill="#D71212"/>
</svg>
