<svg width="179" height="60" viewBox="0 0 179 60" fill="none" xmlns="http://www.w3.org/2000/svg">
<path d="M66 36.6744C66 34.945 66.3363 33.4076 67.0089 32.0625C67.6814 30.7067 68.6476 29.6658 69.9073 28.9398C71.1671 28.2139 72.6457 27.8509 74.3431 27.8509C76.9373 27.8509 78.9817 28.6569 80.4763 30.269C81.9709 31.8703 82.7182 34.0535 82.7182 36.8186V37.0107C82.7182 39.7117 81.9656 41.8575 80.4603 43.4482C78.9657 45.0282 76.9373 45.8182 74.3751 45.8182C71.909 45.8182 69.9287 45.0816 68.4341 43.6083C66.9395 42.1244 66.1334 40.1174 66.016 37.5872L66 36.6744ZM71.3966 37.0107C71.3966 38.6121 71.6475 39.7864 72.1492 40.5337C72.651 41.281 73.393 41.6547 74.3751 41.6547C76.2968 41.6547 77.2789 40.1761 77.3216 37.2189V36.6744C77.3216 33.5678 76.3288 32.0145 74.3431 32.0145C72.5389 32.0145 71.5621 33.3543 71.4126 36.0339L71.3966 37.0107Z" fill="#3F4048"/>
<path d="M91.3816 23.8635V28.1712H94.232V31.9184H91.3816V39.8451C91.3816 40.4963 91.499 40.9501 91.7339 41.2063C91.9688 41.4625 92.4332 41.5906 93.1271 41.5906C93.6609 41.5906 94.1093 41.5586 94.4722 41.4945V45.3538C93.5007 45.6634 92.4865 45.8182 91.4296 45.8182C89.5721 45.8182 88.2002 45.3805 87.3141 44.5051C86.4281 43.6297 85.985 42.3006 85.985 40.5177V31.9184H83.7751V28.1712H85.985V23.8635H91.3816Z" fill="#3F4048"/>
<path d="M95.2089 36.6744C95.2089 34.945 95.5451 33.4076 96.2177 32.0625C96.8903 30.7067 97.8564 29.6658 99.1162 28.9398C100.376 28.2139 101.855 27.8509 103.552 27.8509C106.146 27.8509 108.191 28.6569 109.685 30.269C111.18 31.8703 111.927 34.0535 111.927 36.8186V37.0107C111.927 39.7117 111.174 41.8575 109.669 43.4482C108.175 45.0282 106.146 45.8182 103.584 45.8182C101.118 45.8182 99.1375 45.0816 97.6429 43.6083C96.1483 42.1244 95.3423 40.1174 95.2249 37.5872L95.2089 36.6744ZM100.605 37.0107C100.605 38.6121 100.856 39.7864 101.358 40.5337C101.86 41.281 102.602 41.6547 103.584 41.6547C105.506 41.6547 106.488 40.1761 106.53 37.2189V36.6744C106.53 33.5678 105.538 32.0145 103.552 32.0145C101.748 32.0145 100.771 33.3543 100.621 36.0339L100.605 37.0107Z" fill="#3F4048"/>
<path d="M124.786 33.0553L123.009 32.9272C121.311 32.9272 120.222 33.461 119.742 34.5286V45.4979H114.345V28.1712H119.405L119.582 30.3971C120.489 28.6996 121.754 27.8509 123.377 27.8509C123.953 27.8509 124.455 27.915 124.882 28.0431L124.786 33.0553Z" fill="#3F4048"/>
<path d="M125.731 36.7065C125.731 33.9628 126.323 31.8009 127.508 30.2209C128.693 28.6409 130.348 27.8509 132.473 27.8509C134.021 27.8509 135.323 28.4594 136.38 29.6765V20.901H141.793V45.4979H136.94L136.668 43.6404C135.558 45.0923 134.149 45.8182 132.441 45.8182C130.38 45.8182 128.747 45.0282 127.54 43.4482C126.334 41.8682 125.731 39.6209 125.731 36.7065ZM131.127 37.0427C131.127 40.1174 132.024 41.6547 133.818 41.6547C135.013 41.6547 135.867 41.1529 136.38 40.1494V33.5518C135.889 32.5269 135.045 32.0145 133.85 32.0145C132.184 32.0145 131.282 33.3596 131.143 36.0499L131.127 37.0427Z" fill="#3F4048"/>
<path d="M144.179 36.6744C144.179 34.945 144.515 33.4076 145.187 32.0625C145.86 30.7067 146.826 29.6658 148.086 28.9398C149.346 28.2139 150.824 27.8509 152.522 27.8509C155.116 27.8509 157.16 28.6569 158.655 30.269C160.149 31.8703 160.897 34.0535 160.897 36.8186V37.0107C160.897 39.7117 160.144 41.8575 158.639 43.4482C157.144 45.0282 155.116 45.8182 152.554 45.8182C150.088 45.8182 148.107 45.0816 146.613 43.6083C145.118 42.1244 144.312 40.1174 144.195 37.5872L144.179 36.6744ZM149.575 37.0107C149.575 38.6121 149.826 39.7864 150.328 40.5337C150.83 41.281 151.572 41.6547 152.554 41.6547C154.475 41.6547 155.457 40.1761 155.5 37.2189V36.6744C155.5 33.5678 154.507 32.0145 152.522 32.0145C150.717 32.0145 149.741 33.3543 149.591 36.0339L149.575 37.0107Z" fill="#3F4048"/>
<path d="M169.944 32.9433L172.459 28.1712H178.063L173.499 36.6104L178.288 45.4979H172.651L169.928 40.3736L167.254 45.4979H161.585L166.389 36.6104L161.842 28.1712H167.51L169.944 32.9433Z" fill="#3F4048"/>
<path fill-rule="evenodd" clip-rule="evenodd" d="M0.509277 0H36.5099L45.8545 9.38253V26.1032H44.5706V9.91279L35.9766 1.28383H1.79311V57.7296H44.5706V51.0767H45.8545V59.0134H0.509277V0Z" fill="#D71212"/>
<path d="M40.8007 45.8022L34.3146 22.0754C34.3492 26.0874 34.3238 29.2303 34.3238 31.472V45.8022H26.4253V12.8088H38.2957L45.1787 36.2337H45.3593L52.1069 12.8088H63.9998V45.8022H55.8079V31.3366C55.8079 30.5843 55.8154 29.7494 55.8305 28.8316C55.8455 27.9139 55.798 25.7252 55.9108 22.0591L49.286 45.8022H40.8007Z" fill="#D71212"/>
<path fill-rule="evenodd" clip-rule="evenodd" d="M24.2894 23.9146C21.3409 23.9146 18.9507 26.3048 18.9507 29.2533C18.9507 32.2018 21.3409 34.5921 24.2894 34.5921V33.2194C22.099 33.2194 20.3234 31.4437 20.3234 29.2533C20.3234 27.063 22.099 25.2873 24.2894 25.2873V23.9146Z" fill="#D71212"/>
<path fill-rule="evenodd" clip-rule="evenodd" d="M24.2896 12.7914H20.9196H20.2333V13.4777V17.5348C18.8243 18.0202 17.5157 18.7587 16.372 19.714L12.8885 17.5994L12.2963 17.24L11.9423 17.8355L8.48307 23.6558L8.12582 24.2569L8.73345 24.6029L9.71333 25.1609L12.1468 26.6396C11.9576 27.5097 11.8612 28.398 11.8597 29.2894C11.8564 30.0948 11.9318 30.8981 12.0847 31.688L8.5703 33.6771L7.96777 34.0181L8.31399 34.6176L11.6909 40.4654L12.0342 41.06L12.6287 40.7165L16.1578 38.6771C17.348 39.7324 18.7322 40.546 20.2333 41.0725V45.1326V45.819H20.9196H24.2896V44.4463H21.606V40.5752V40.0667L21.1196 39.9186C19.4725 39.4171 17.9678 38.532 16.7292 37.336L16.357 36.9766L15.909 37.2355L12.5363 39.1844L9.84896 34.5307L13.1999 32.6342L13.6488 32.3801L13.5296 31.8783C13.3285 31.0318 13.2288 30.1644 13.2324 29.2943L13.2324 29.2926C13.234 28.3454 13.3557 27.4023 13.5946 26.4858L13.7235 25.9914L13.2869 25.7261L10.4179 23.9827L10.4095 23.9777L10.4011 23.9729L10.0204 23.7561L12.7684 19.1324L16.0884 21.1477L16.5269 21.4138L16.9064 21.0687C18.1134 19.971 19.5521 19.159 21.1157 18.6929L21.606 18.5468V18.0352V14.1641H24.2896V12.7914ZM11.8597 29.2894L11.8597 29.2903L12.5461 29.2915L11.8597 29.2886L11.8597 29.2894Z" fill="#D71212"/>
</svg>
