<svg width="56" height="57" viewBox="0 0 56 47" fill="none" xmlns="http://www.w3.org/2000/svg">
<path fill-rule="evenodd" clip-rule="evenodd" d="M26.6224 39.1594L27.6627 38.8449C30.1959 38.0792 32.4704 36.704 34.3178 34.8862L35.1063 34.1103L39.9158 36.4629L43.1338 30.7924L38.6045 27.749L38.8328 26.6944C39.0769 25.5673 39.2058 24.3954 39.2058 23.1913C39.2058 21.9178 39.0616 20.6802 38.7894 19.4935L38.5475 18.4388L43.0924 15.3207L39.8204 9.68179L34.9648 12.1154L34.1692 11.3521C32.349 9.60577 30.1284 8.2831 27.6627 7.53775L26.6224 7.22326L26.2409 1.58128L19.7616 1.58128L19.3801 7.22326L18.3398 7.53774C15.9536 8.25908 13.7969 9.52111 12.0105 11.1847L11.2246 11.9165L5.93041 9.32687L2.71243 14.9973L7.51848 18.2267L7.258 19.303C6.95679 20.5476 6.79672 21.8496 6.79672 23.1913C6.79672 24.5734 6.96655 25.9132 7.28554 27.1917L7.55289 28.2633L2.82385 31.5077L6.09584 37.1466L11.2949 34.5408L12.0882 35.27C13.8594 36.898 15.9881 38.134 18.3398 38.8449L19.3801 39.1594L19.7616 44.8014L26.2409 44.8014L26.6224 39.1594ZM18.2967 46.3826L27.7058 46.3826L28.1131 40.3596C30.894 39.5189 33.3885 38.01 35.4131 36.0178L40.5493 38.5302L45.2224 30.2957L40.3649 27.0317C40.6328 25.7945 40.774 24.5096 40.774 23.1913C40.774 21.797 40.616 20.4399 40.3173 19.1372L45.1857 15.7971L40.4342 7.60838L35.2502 10.2066C33.2553 8.29271 30.8199 6.84138 28.1131 6.02312L27.7058 5.98917e-05L18.2967 5.92775e-05L17.8894 6.02312C15.2698 6.81502 12.9044 8.19983 10.9465 10.023L5.29687 7.25951L0.623785 15.494L5.73452 18.9281C5.40385 20.2945 5.22854 21.7223 5.22854 23.1913C5.22854 24.7045 5.41454 26.1739 5.76475 27.5775L0.73055 31.0313L5.48208 39.22L11.0317 36.4385C12.9729 38.2228 15.3077 39.5791 17.8894 40.3596L18.2967 46.3826Z" fill="black"/>
<path fill-rule="evenodd" clip-rule="evenodd" d="M22.9229 14.0168C17.8559 14.0168 13.7483 18.1244 13.7483 23.1914C13.7483 28.2584 17.8559 32.3659 22.9229 32.3659C27.9899 32.366 32.0975 28.2584 32.0975 23.1914C32.0975 18.1244 27.9899 14.0168 22.9229 14.0168ZM22.9229 12.4877C17.0114 12.4877 12.2192 17.2799 12.2192 23.1914C12.2192 29.1028 17.0114 33.895 22.9229 33.895C28.8344 33.895 33.6266 29.1028 33.6266 23.1914C33.6266 17.2799 28.8344 12.4877 22.9229 12.4877Z" fill="#D71212"/>
</svg>
