<svg width="39" height="44" viewBox="0 0 39 44" fill="none" xmlns="http://www.w3.org/2000/svg">
<path fill-rule="evenodd" clip-rule="evenodd" d="M22.6942 19.7168C22.9827 20.0714 23.1705 20.595 23.2707 21.2559L23.2711 21.2584C23.5657 23.2624 23.2551 25.4821 22.5864 27.6849C23.3543 29.1979 24.5614 30.7315 26.4518 31.9834C29.3819 31.6561 31.5755 31.8217 32.5681 31.9372C33.5105 32.0469 34.1497 32.3867 34.5021 32.8943C34.8504 33.396 34.8435 33.9551 34.7136 34.3407C34.5205 34.9136 33.9411 35.3409 32.9475 35.3943C31.9818 35.4462 30.5263 35.1629 28.3165 34.2686L28.3096 34.2659L28.3096 34.2658C27.5262 33.9371 26.8172 33.5703 26.1756 33.1742C24.1554 33.4269 21.794 33.9243 19.2462 34.8469C18.386 36.221 17.4662 37.4743 16.5645 38.5271L16.5612 38.5309L16.5579 38.5346C15.2451 40.0148 14.1313 40.6804 13.2154 40.8269C12.2707 40.978 11.5716 40.5622 11.2799 40.0211C11.024 39.5465 11.0625 38.8646 11.4081 38.1993C11.7626 37.517 12.455 36.8049 13.6168 36.1771C15.2786 35.2381 16.9093 34.4934 18.4762 33.9048C19.2255 32.676 19.9223 31.3541 20.5075 29.9996C20.8267 29.261 21.1108 28.5171 21.3517 27.777C19.9869 24.8002 20.1036 21.9936 20.1432 21.3089C20.1714 20.8217 20.3077 20.3741 20.5221 20.0186C20.7296 19.6748 21.0495 19.358 21.4712 19.257C21.9427 19.1441 22.3845 19.3361 22.6942 19.7168ZM21.8653 25.915C22.2187 24.3327 22.3357 22.8053 22.1333 21.4271C22.0474 20.8617 21.9058 20.5702 21.802 20.4426C21.778 20.4132 21.7587 20.3957 21.746 20.386C21.7408 20.382 21.7366 20.3792 21.7335 20.3773C21.7062 20.3874 21.6127 20.4376 21.5069 20.6129C21.3987 20.7923 21.31 21.0551 21.2915 21.3753C21.2603 21.9146 21.1839 23.7595 21.8653 25.915ZM22.0894 29.1508C21.9256 29.5892 21.7496 30.0249 21.5634 30.4558C21.1395 31.4369 20.6595 32.4011 20.1438 33.3276C21.8033 32.8013 23.3724 32.4454 24.8083 32.2099C23.635 31.266 22.7524 30.2166 22.0894 29.1508ZM17.3776 35.5889C16.3314 36.0416 15.2616 36.5686 14.1779 37.1811L14.173 37.1839L14.168 37.1866C13.1496 37.7361 12.6513 38.3013 12.4288 38.7295C12.197 39.1758 12.2726 39.4387 12.2923 39.4753L11.787 39.7477L12.2923 39.4753C12.3314 39.5477 12.5279 39.7721 13.0336 39.6912C13.5677 39.6057 14.4582 39.1676 15.6942 37.7751C16.2535 37.1217 16.8217 36.3858 17.3776 35.5889ZM28.2569 32.9859C28.418 33.0604 28.5828 33.133 28.7513 33.2038C30.9058 34.0754 32.1727 34.2841 32.8858 34.2458C33.2358 34.227 33.4218 34.1502 33.513 34.0921C33.5982 34.0379 33.6181 33.9899 33.6236 33.9734C33.659 33.8682 33.6621 33.7012 33.5574 33.5503C33.4568 33.4055 33.1797 33.1664 32.4351 33.0797C31.6997 32.9941 30.2325 32.8761 28.2569 32.9859Z" fill="#D71212"/>
<path fill-rule="evenodd" clip-rule="evenodd" d="M21.4634 9.3433H1.9152V15.9189H21.4634V9.3433ZM0.765015 8.19312V17.0691H22.6136V8.19312H0.765015Z" fill="black"/>
<path d="M6.69765 14.5192H5.7085V10.6833H7.6293C8.04337 10.6833 8.36925 10.806 8.60696 11.0514C8.84466 11.2929 8.96351 11.5958 8.96351 11.9601C8.96351 12.3204 8.84466 12.6233 8.60696 12.8687C8.36925 13.1102 8.04337 13.231 7.6293 13.231H6.69765V14.5192ZM7.49703 12.3684C7.63122 12.3684 7.74048 12.3319 7.82483 12.2591C7.91301 12.1863 7.9571 12.0866 7.9571 11.9601C7.9571 11.8297 7.91301 11.7281 7.82483 11.6553C7.74048 11.5824 7.63122 11.546 7.49703 11.546H6.69765V12.3684H7.49703Z" fill="#D71212"/>
<path d="M11.48 14.5192H9.86398V10.6833H11.4742C12.0877 10.6833 12.5861 10.8559 12.9695 11.2009C13.3567 11.546 13.5503 12.0118 13.5503 12.5984C13.5503 13.185 13.3567 13.6527 12.9695 14.0016C12.5861 14.3467 12.0896 14.5192 11.48 14.5192ZM11.4742 13.6566C11.8001 13.6566 12.0589 13.555 12.2506 13.3518C12.4423 13.1447 12.5382 12.8936 12.5382 12.5984C12.5382 12.2879 12.4461 12.0348 12.2621 11.8393C12.0781 11.6438 11.8174 11.546 11.48 11.546H10.8531V13.6566H11.4742Z" fill="#D71212"/>
<path d="M15.4916 14.5192H14.5024V10.6833H17.3146V11.546H15.4916V12.1441H17.2744V13.0067H15.4916V14.5192Z" fill="#D71212"/>
<path fill-rule="evenodd" clip-rule="evenodd" d="M30.1683 1.15018V9.39348H37.8499V42.5469H7.37748V17.0691H6.22729V43.6971H39.0001V8.81839L30.7434 0H6.22729V8.19317H7.37748V1.15018H30.1683ZM31.3185 2.29705L36.886 8.2433H31.3185V2.29705Z" fill="black"/>
</svg>
