<svg width="402" height="73" viewBox="0 0 402 73" fill="none" xmlns="http://www.w3.org/2000/svg">
<path fill-rule="evenodd" clip-rule="evenodd" d="M394 2C397.314 2 400 4.68629 400 8C400 11.3137 397.314 14 394 14C390.686 14 388 11.3137 388 8C388 4.68629 390.686 2 394 2ZM394 0C398.418 0 402 3.58172 402 8C402 12.4183 398.418 16 394 16C392.31 16 390.742 15.476 389.451 14.5815L339.001 72.6558L338.702 73H338.246L0 73V71L337.79 71L387.961 13.247C386.739 11.8424 386 10.0075 386 8C386 3.58172 389.582 0 394 0Z" fill="black"/>
</svg>
