<svg width="178" height="133" viewBox="0 0 178 133" fill="none" xmlns="http://www.w3.org/2000/svg">
<path fill-rule="evenodd" clip-rule="evenodd" d="M1.98727 1.70712H113.305V71.9864H1.98727V1.70712ZM0.292621 0H1.98727H113.305H115V1.70712V71.9864V73.6935H113.305H70.0832V74.2215V85.104C70.0832 88.4844 70.9757 91.6548 72.5362 94.3892C72.873 94.9793 73.2409 95.5491 73.6377 96.0963H71.584H45.4643H43.4107C43.8074 95.5491 44.1753 94.9793 44.5121 94.3892C46.0727 91.6548 46.9651 88.4844 46.9651 85.104V74.2215V73.6935H1.98727H0.292621V71.9864V1.70712V0ZM48.6598 85.104V74.2215H68.3886V85.104C68.3886 88.447 69.1893 91.6042 70.6079 94.3892H46.4404C47.8591 91.6042 48.6598 88.4469 48.6598 85.104ZM65.9388 107.238L1.69607 107.292L1.71598 131.291L65.9587 131.237L65.9388 107.238ZM1.69465 105.585L0 105.586L0.00141675 107.293L0.0213343 131.293L0.022751 133L1.7174 132.999L65.9601 132.944L67.6548 132.943L67.6534 131.236L67.6334 107.236L67.632 105.529L65.9374 105.531L1.69465 105.585ZM98.943 103.223L103.611 100.921C103.852 100.803 104.142 100.903 104.259 101.145L108.732 110.349C108.849 110.591 108.75 110.883 108.51 111.001L103.841 113.303C103.601 113.422 103.311 113.321 103.193 113.079L98.721 103.876C98.6035 103.634 98.7029 103.342 98.943 103.223ZM97.4164 104.519C96.9461 103.551 97.3437 102.383 98.3044 101.909L102.973 99.607C103.934 99.1333 105.094 99.5338 105.564 100.502L110.036 109.705C110.506 110.673 110.109 111.842 109.148 112.315L104.48 114.617C103.519 115.091 102.359 114.691 101.889 113.723L97.4164 104.519Z" fill="black"/>
<path fill-rule="evenodd" clip-rule="evenodd" d="M109.298 9.71245H5.70227V63.2876H109.298V9.71245ZM4 8V65H111V8H4Z" fill="#D71212"/>
<path fill-rule="evenodd" clip-rule="evenodd" d="M44.7849 111.547L5.85396 111.746L5.93146 126.863L44.8624 126.663L44.7849 111.547ZM4.14258 110.052L4.23754 128.574L46.5738 128.357L46.4788 109.835L4.14258 110.052Z" fill="#D71212"/>
<path fill-rule="evenodd" clip-rule="evenodd" d="M59.8661 111.436L50.9233 111.482L51.0008 126.599L59.9436 126.553L59.8661 111.436ZM49.2119 109.788L49.3069 128.31L61.655 128.247L61.56 109.725L49.2119 109.788Z" fill="#D71212"/>
<path d="M153.106 105.443C154.556 105.831 155.426 107.287 155.049 108.694C154.672 110.102 153.19 110.927 151.741 110.539C150.291 110.15 149.421 108.695 149.798 107.287C150.175 105.88 151.656 105.054 153.106 105.443Z" fill="#D71212"/>
<path fill-rule="evenodd" clip-rule="evenodd" d="M175.378 47.2019L127.362 47.2019L127.362 103.037L175.378 103.037L175.378 47.2019ZM125.659 45.4993L125.659 104.739L177.081 104.739L177.081 45.4993L125.659 45.4993Z" fill="black"/>
<path fill-rule="evenodd" clip-rule="evenodd" d="M175.378 47.2019L127.362 47.2019L127.362 111.757L175.378 111.757L175.378 47.2019ZM125.659 45.4993L125.659 113.46L177.081 113.46L177.081 45.4993L125.659 45.4993Z" fill="black"/>
</svg>
