<svg width="56" height="57" viewBox="0 0 56 57" fill="none" xmlns="http://www.w3.org/2000/svg">
<path fill-rule="evenodd" clip-rule="evenodd" d="M3.25058 15.7494L5.22651 13.7735L12.7779 21.3249L19.9264 20.5925L20.6588 13.444L13.1074 5.89259L15.0833 3.91666L25.8995 8.23171L27.2746 20.9429L46.562 38.5437C46.8729 38.8274 47.1629 39.1373 47.3733 39.5018C48.7548 41.8952 48.4359 45.0124 46.3921 47.0562C44.3482 49.1001 41.2405 49.4297 38.8484 48.0496C38.4842 47.8394 38.1745 47.5496 37.891 47.239L20.2748 27.9404L7.56562 26.5656L3.25058 15.7494ZM38.6705 46.0575L38.7686 46.1468C40.6381 47.8498 43.5316 47.7991 45.3333 45.9974C47.135 44.1957 47.1857 41.3022 45.4827 39.4327L45.4123 39.3555L25.8473 21.6712L24.5078 9.2886L15.4447 5.67295L15.225 5.8926L22.2209 12.8885L21.2917 21.9578L12.2224 22.887L5.22651 15.8911L5.00686 16.1108L8.62252 25.1738L21.003 26.5131L38.6705 46.0575Z" fill="black"/>
<path fill-rule="evenodd" clip-rule="evenodd" d="M40.2631 40.929C39.5471 41.6451 39.5471 42.8059 40.2631 43.5219C40.9791 44.238 42.14 44.238 42.856 43.5219C43.572 42.8059 43.572 41.6451 42.856 40.929C42.14 40.213 40.9791 40.213 40.2631 40.929ZM39.1823 44.6027C37.8694 43.2898 37.8694 41.1612 39.1823 39.8482C40.4952 38.5353 42.6239 38.5353 43.9368 39.8482C45.2497 41.1612 45.2497 43.2898 43.9368 44.6027C42.6239 45.9157 40.4952 45.9157 39.1823 44.6027Z" fill="#D71212"/>
</svg>
