<svg width="234" height="139" viewBox="0 0 234 139" fill="none" xmlns="http://www.w3.org/2000/svg">
<path d="M137.381 137.996L110.369 39.1801C110.513 55.8893 110.407 68.9785 110.407 78.3146V137.996H77.5117V0.587402H126.949L155.615 98.1458H156.367L184.469 0.587402H234V137.996H199.883V77.7506C199.883 74.6178 199.914 71.1402 199.977 67.3181C200.039 63.496 199.841 54.3808 200.311 39.1122L172.72 137.996H137.381Z" fill="#D71212"/>
<path fill-rule="evenodd" clip-rule="evenodd" d="M68.6167 46.8394C56.337 46.8395 46.3823 56.7942 46.3823 69.074C46.3823 81.3538 56.337 91.3085 68.6167 91.3086V85.5916C59.4944 85.5915 52.0993 78.1963 52.0993 69.074C52.0993 59.9517 59.4944 52.5565 68.6167 52.5564V46.8394Z" fill="#D71212"/>
<path fill-rule="evenodd" clip-rule="evenodd" d="M68.6168 0.514404H54.5818H51.7233V3.37291V20.2697C45.8553 22.291 40.4053 25.3667 35.6419 29.3452L21.1341 20.5387L18.6677 19.0415L17.1936 21.5218L2.78672 45.7619L1.29885 48.2653L3.82948 49.7064L7.91043 52.0303L18.0451 58.1886C17.2571 61.8125 16.8559 65.5119 16.8495 69.2245C16.8357 72.5787 17.1498 75.9244 17.7865 79.2141L3.14997 87.4979L0.640625 88.9182L2.08253 91.4151L16.1464 115.77L17.5763 118.246L20.052 116.815L34.75 108.322C39.7067 112.717 45.4719 116.105 51.7233 118.298V135.207V138.066H54.5818H68.6168V132.349H57.4403V116.227V114.109L55.4145 113.492C48.5546 111.403 42.2881 107.717 37.1295 102.736L35.5794 101.24L33.7138 102.318L19.6673 110.435L8.47526 91.0531L22.4309 83.1546L24.3005 82.0965L23.8041 80.0063C22.9667 76.4809 22.5513 72.8684 22.5665 69.2449L22.5665 69.2376C22.5731 65.293 23.0799 61.3651 24.0749 57.548L24.6116 55.489L22.7932 54.3841L10.8447 47.1235L10.81 47.1024L10.7747 47.0824L9.18912 46.1794L20.634 26.923L34.4611 35.3162L36.2872 36.4247L37.8676 34.9874C42.8947 30.4156 48.8863 27.0338 55.3983 25.0928L57.4403 24.4842V22.3534V6.23142H68.6168V0.514404ZM16.8495 69.2245L16.8495 69.2282L19.708 69.2329L16.8495 69.2209L16.8495 69.2245Z" fill="#D71212"/>
</svg>
