<svg width="48" height="48" viewBox="0 0 48 48" fill="none" xmlns="http://www.w3.org/2000/svg">
<circle cx="24" cy="24" r="24" fill="#EECC95"/>
<path d="M17.3462 14.2979H23.1943C25.9414 14.2979 27.9285 14.7085 29.1558 15.5298C30.383 16.3511 30.9966 17.6491 30.9966 19.4238C30.9966 20.651 30.652 21.6659 29.9629 22.4683C29.2832 23.2612 28.2873 23.7757 26.9751 24.0117V24.1533C30.1187 24.6914 31.6904 26.3434 31.6904 29.1094C31.6904 30.9596 31.0627 32.404 29.8071 33.4424C28.561 34.4808 26.8146 35 24.5679 35H17.3462V14.2979ZM19.7534 23.1621H23.7183C25.4175 23.1621 26.64 22.8978 27.3857 22.3691C28.1315 21.8311 28.5044 20.9295 28.5044 19.6646C28.5044 18.5034 28.089 17.668 27.2583 17.1582C26.4276 16.639 25.106 16.3794 23.2935 16.3794H19.7534V23.1621ZM19.7534 25.2012V32.9468H24.0723C25.7432 32.9468 26.9987 32.6258 27.8389 31.9839C28.6885 31.3325 29.1133 30.3177 29.1133 28.9395C29.1133 27.6556 28.679 26.7116 27.8105 26.1074C26.9515 25.5033 25.6393 25.2012 23.874 25.2012H19.7534Z" fill="white"/>
</svg>
