<svg width="81" height="81" viewBox="0 0 81 81" fill="none" xmlns="http://www.w3.org/2000/svg">
<path fill-rule="evenodd" clip-rule="evenodd" d="M39.0983 21.2208C28.2048 21.2208 19.3734 30.3533 19.3734 41.6182C19.3734 52.8814 28.2048 62.0139 39.0983 62.0139C49.9902 62.0139 58.8215 52.8814 58.8215 41.6182C58.8215 30.3533 49.9902 21.2208 39.0983 21.2208ZM39.1843 54.9419C31.6358 54.9419 25.5158 49.0152 25.5158 41.7028C25.5158 34.3905 31.6358 28.4619 39.1843 28.4619C46.7328 28.4619 52.851 34.3905 52.851 41.7028C52.851 49.0152 46.7328 54.9419 39.1843 54.9419ZM67.0948 18.1135C67.0948 20.8645 64.9119 23.0926 62.2168 23.0926C59.5235 23.0926 57.3388 20.8645 57.3388 18.1135C57.3388 15.3644 59.5235 13.1343 62.2168 13.1343C64.9119 13.1343 67.0948 15.3644 67.0948 18.1135Z" fill="white"/>
<path fill-rule="evenodd" clip-rule="evenodd" d="M0.470703 13.4978C0.470703 6.49193 6.15011 0.8125 13.156 0.8125H67.739C74.7449 0.8125 80.4244 6.4919 80.4244 13.4978V68.0808C80.4244 75.0867 74.7449 80.7662 67.739 80.7662H13.156C6.15013 80.7662 0.470703 75.0867 0.470703 68.0808V13.4978ZM13.156 7.39007C9.78281 7.39007 7.04827 10.1246 7.04827 13.4978V68.0808C7.04827 71.454 9.78281 74.1886 13.156 74.1886H67.739C71.1122 74.1886 73.8468 71.454 73.8468 68.0808V13.4978C73.8468 10.1246 71.1122 7.39007 67.739 7.39007H13.156Z" fill="white"/>
</svg>
