<svg width="81" height="81" viewBox="0 0 81 81" fill="none" xmlns="http://www.w3.org/2000/svg">
<path d="M61.1009 21.1025C60.928 21.1021 60.7564 21.1338 60.595 21.196L16.7992 37.83C16.527 37.9327 16.2933 38.1172 16.1302 38.358C15.967 38.5988 15.8824 38.8842 15.888 39.175C15.8935 39.4659 15.9889 39.7479 16.1611 39.9823C16.3333 40.2167 16.5739 40.3921 16.8498 40.4843L26.9999 43.917L33.1219 56.1649V56.196C33.1736 56.3094 33.2561 56.406 33.36 56.4748C33.4639 56.5436 33.585 56.5819 33.7096 56.5852C33.8655 56.5847 34.0161 56.528 34.1338 56.4257L39.89 51.5724L33.4877 46.6997L33.9898 53.0825L29.3856 43.5512L53.8503 28.8592L33.4877 46.6997L49.3395 58.7297C49.8371 59.1125 50.4476 59.3192 51.0753 59.3174C51.7203 59.3191 52.3472 59.1045 52.8559 58.708C53.3645 58.3115 53.7256 57.756 53.8814 57.1301L62.4437 22.8578C62.4952 22.6518 62.4996 22.4368 62.4566 22.2289C62.4136 22.0209 62.3242 21.8253 62.1952 21.6567C62.0662 21.488 61.9008 21.3506 61.7113 21.2547C61.5219 21.1587 61.3133 21.1067 61.1009 21.1025Z" fill="white"/>
<path fill-rule="evenodd" clip-rule="evenodd" d="M0.259033 12.925C0.259033 5.9194 5.93818 0.240234 12.9438 0.240234H67.5243C74.5299 0.240234 80.209 5.91938 80.209 12.925V67.5055C80.209 74.5111 74.5299 80.1902 67.5243 80.1902H12.9438C5.9382 80.1902 0.259033 74.5111 0.259033 67.5055V12.925ZM12.9438 6.81751C9.57072 6.81751 6.8363 9.55192 6.8363 12.925V67.5055C6.8363 70.8785 9.57072 73.613 12.9438 73.613H67.5243C70.8973 73.613 73.6318 70.8785 73.6318 67.5055V12.925C73.6318 9.55192 70.8973 6.81751 67.5243 6.81751H12.9438Z" fill="white"/>
</svg>
