<svg width="81" height="81" viewBox="0 0 81 81" fill="none" xmlns="http://www.w3.org/2000/svg">
<path fill-rule="evenodd" clip-rule="evenodd" d="M43.6867 63.0723H33.9787V40.4197H29.1267V32.6144H33.9787V27.9279C33.9787 21.5614 36.7158 17.7729 44.4999 17.7729H50.9782V25.5812H46.9294C43.8997 25.5812 43.6987 26.6713 43.6987 28.7078L43.6857 32.6144H51.023L50.1641 40.4197H43.6857V63.0723H43.6867Z" fill="white"/>
<path fill-rule="evenodd" clip-rule="evenodd" d="M0.0999756 13.1374C0.0999756 6.13181 5.77912 0.452637 12.7847 0.452637H67.3652C74.3708 0.452637 80.05 6.13178 80.05 13.1374V67.7179C80.05 74.7235 74.3708 80.4026 67.3652 80.4026H12.7847C5.77914 80.4026 0.0999756 74.7235 0.0999756 67.7179V13.1374ZM12.7847 7.02991C9.41166 7.02991 6.67725 9.76432 6.67725 13.1374V67.7179C6.67725 71.091 9.41166 73.8254 12.7847 73.8254H67.3652C70.7383 73.8254 73.4727 71.091 73.4727 67.7179V13.1374C73.4727 9.76432 70.7383 7.02991 67.3652 7.02991H12.7847Z" fill="white"/>
</svg>
