<svg width="29" height="30" viewBox="0 0 29 30" fill="none" xmlns="http://www.w3.org/2000/svg">
<path d="M28.4464 5.57444C27.9901 3.85356 27.0172 2.52419 25.4287 1.68957C24.4042 1.15179 23.2849 0.910869 22.1398 0.859243C20.6073 0.786106 19.0705 0.730177 17.538 0.725875C14.4901 0.717271 11.438 0.730177 8.39015 0.777501C7.39142 0.790408 6.37978 0.863545 5.39397 1.03993C2.82829 1.50027 1.11926 2.97162 0.404655 5.51851C0.0947063 6.61127 0.0172194 7.73844 0.0129145 8.86131C-0.00430485 13.0775 -0.00430485 17.2936 0.0129145 21.5097C0.0172194 22.5466 0.0947063 23.5834 0.340083 24.603C0.774872 26.4056 1.74777 27.8038 3.40513 28.6729C4.42969 29.2106 5.54895 29.4516 6.69404 29.5032C8.22656 29.5763 9.76339 29.6323 11.2959 29.6366C14.3524 29.6452 17.4088 29.6323 20.4652 29.5849C21.4597 29.572 22.4627 29.4989 23.4399 29.3225C26.0831 28.845 27.7964 27.3091 28.4766 24.6804C28.7736 23.5404 28.8123 22.3702 28.8339 21.2043C28.8726 19.1952 28.8855 17.1903 28.9157 14.6133C28.8812 12.815 28.8425 10.4488 28.7865 8.08261C28.7693 7.23508 28.6617 6.39616 28.4464 5.57444ZM14.4126 24.2244C9.40179 24.2244 5.36384 20.1804 5.36814 15.1683C5.37245 10.1778 9.42762 6.13372 14.4255 6.14233C19.4278 6.15093 23.4614 10.1907 23.4614 15.1898C23.4571 20.1847 19.4149 24.2244 14.4126 24.2244ZM23.8058 7.90192C22.6478 7.89762 21.6964 6.94684 21.6964 5.78955C21.6964 4.62796 22.6392 3.68578 23.8058 3.68148C24.9767 3.67717 25.9152 4.61075 25.9195 5.77664C25.9195 6.95544 24.9767 7.90622 23.8058 7.90192Z" fill="#A1F421"/>
</svg>
