<svg width="29" height="30" viewBox="0 0 29 30" fill="none" xmlns="http://www.w3.org/2000/svg">
<path d="M22.8916 0.421631H6.0241C2.6506 0.421631 0 3.07223 0 6.44573V23.3132C0 26.6867 2.6506 29.3373 6.0241 29.3373H22.8916C26.2651 29.3373 28.9157 26.6867 28.9157 23.3132V6.44573C28.9157 3.07223 26.2651 0.421631 22.8916 0.421631ZM9.63855 23.3132H6.0241V10.0602H9.63855V23.3132ZM7.83133 8.49392C6.62651 8.49392 5.66265 7.53007 5.66265 6.32525C5.66265 5.12043 6.62651 4.15657 7.83133 4.15657C9.03615 4.15657 9.87952 5.24091 9.87952 6.44573C9.87952 7.65055 9.03615 8.49392 7.83133 8.49392ZM24.0964 23.3132H20.4819V16.5662C20.4819 12.4698 15.6627 12.8313 15.6627 16.5662V23.3132H12.0482V10.0602H15.6627V12.2289C17.3494 9.09633 24.0964 8.85537 24.0964 15.2409V23.3132Z" fill="#A1F421"/>
</svg>
