<svg width="26" height="19" viewBox="0 0 26 19" fill="none" xmlns="http://www.w3.org/2000/svg">
<path d="M12.9914 0C16.4192 0 19.8299 0 23.2577 0C24.8688 0 26 1.12865 26 2.73612C26 7.09682 26 11.4575 26 15.8353C26 17.4428 24.8688 18.5714 23.2577 18.5714C16.4192 18.5714 9.58075 18.5714 2.75939 18.5714C1.14832 18.5714 0.0171391 17.4428 0.0171391 15.8353C0 11.4575 0 7.09682 0 2.71902C0 1.12865 1.13118 0 2.72512 0C6.15293 0 9.56361 0 12.9914 0ZM13.0086 1.36806C9.59789 1.36806 6.18721 1.36806 2.75939 1.36806C1.8853 1.36806 1.37113 1.88108 1.37113 2.77032C1.37113 7.11392 1.37113 11.4404 1.37113 15.784C1.37113 16.6903 1.86816 17.2034 2.79367 17.2034C9.61503 17.2034 16.4193 17.2034 23.2406 17.2034C24.1318 17.2034 24.646 16.6903 24.646 15.8011C24.646 11.4575 24.6289 7.13102 24.646 2.78742C24.646 1.91529 24.029 1.35096 23.2063 1.35096C19.8128 1.38516 16.4021 1.36806 13.0086 1.36806Z" fill="#60ED3C"/>
<path d="M15.3052 10.7905C13.7798 11.7481 12.2545 11.7481 10.7119 10.7905C10.3177 11.0983 9.92355 11.4061 9.51221 11.7139C7.55836 13.253 5.6045 14.7749 3.65064 16.314C3.29072 16.5876 2.87938 16.5705 2.6223 16.2456C2.36521 15.9207 2.43377 15.5103 2.79369 15.2196C5.00463 13.4924 7.23271 11.7481 9.44366 10.0209C9.51221 9.96963 9.58077 9.91833 9.66646 9.83283C9.23799 9.43951 8.80951 9.04619 8.39817 8.66997C6.51287 6.9428 4.61043 5.21562 2.72513 3.48844C2.41663 3.19773 2.38235 2.78731 2.63944 2.4966C2.91366 2.18879 3.325 2.17168 3.65064 2.4624C5.41597 4.10407 7.19843 5.72864 8.9809 7.37032C9.73502 8.05435 10.4891 8.72128 11.2261 9.42241C12.1688 10.3287 13.7627 10.3801 14.8425 9.38821C17.3276 7.0796 19.8299 4.8052 22.3323 2.5308C22.6065 2.27429 22.8807 2.24009 23.1549 2.37689C23.3949 2.4966 23.5663 2.77021 23.5148 3.06092C23.4806 3.21483 23.412 3.40294 23.292 3.50554C21.1325 5.45503 18.973 7.43872 16.7963 9.42241C16.6421 9.55921 16.4878 9.69602 16.3336 9.84993C16.7963 10.209 17.2419 10.5682 17.6876 10.9102C19.5386 12.3637 21.3896 13.8002 23.2406 15.2538C23.5149 15.459 23.6005 15.7668 23.4977 16.0575C23.3949 16.3311 23.1206 16.5363 22.8293 16.5021C22.675 16.485 22.5036 16.4166 22.3837 16.314C20.1042 14.5355 17.8418 12.7571 15.5794 10.9786C15.4766 10.9273 15.3909 10.8418 15.3052 10.7905Z" fill="#7AF131"/>
</svg>
