<svg width="29" height="29" viewBox="0 0 29 29" fill="none" xmlns="http://www.w3.org/2000/svg">
<path d="M27.3247 1.66285C26.2646 0.602528 24.9874 0.0722656 23.4941 0.0722656H5.42165C3.92832 0.0722656 2.65112 0.602528 1.59059 1.66285C0.530264 2.72338 0 4.00051 0 5.49391V23.5661C0 25.0593 0.530264 26.3366 1.59059 27.3971C2.65112 28.4577 3.92832 28.9879 5.42165 28.9879H23.4939C24.9872 28.9879 26.2644 28.4577 27.3245 27.3971C28.385 26.3366 28.9153 25.0594 28.9153 23.5661V5.49391C28.9152 4.00051 28.3849 2.72318 27.3247 1.66285ZM22.1197 11.1981C22.1323 11.311 22.1387 11.4802 22.1387 11.7065C22.1387 12.7607 21.9848 13.8181 21.6775 14.8783C21.3701 15.939 20.8994 16.9555 20.2653 17.9281C19.632 18.9006 18.8758 19.7605 17.9974 20.5072C17.1188 21.2536 16.0647 21.85 14.8345 22.2952C13.6049 22.7411 12.2869 22.964 10.8814 22.964C8.69786 22.964 6.67729 22.3738 4.81978 21.1945C5.12098 21.232 5.43491 21.2509 5.76103 21.2509C7.58089 21.2509 9.21869 20.6862 10.6746 19.5563C9.82129 19.5441 9.05873 19.2808 8.38736 18.7657C7.71579 18.2512 7.24843 17.5987 6.98482 16.808C7.31101 16.8581 7.5557 16.8829 7.71883 16.8829C7.9949 16.8829 8.31503 16.8328 8.67887 16.7327C7.76274 16.5567 6.99102 16.1022 6.3635 15.368C5.73584 14.6337 5.42212 13.7961 5.42212 12.8549V12.8172C6.08709 13.1308 6.71461 13.2939 7.30454 13.3066C6.16245 12.5409 5.59144 11.4429 5.59144 10.0122C5.59144 9.30933 5.77329 8.64423 6.13727 8.01671C7.12863 9.23416 8.33369 10.2067 9.75166 10.9345C11.1698 11.6623 12.6885 12.0704 14.3074 12.1582C14.2447 11.9198 14.2133 11.6184 14.2133 11.2546C14.2133 10.1625 14.5992 9.23086 15.3711 8.45894C16.1428 7.68709 17.0747 7.30103 18.1664 7.30103C19.3213 7.30103 20.2816 7.71531 21.0471 8.54367C21.9131 8.38054 22.7543 8.06036 23.5698 7.58363C23.2562 8.54974 22.6722 9.28401 21.8192 9.78605C22.6347 9.6729 23.3938 9.45966 24.0965 9.14594C23.5694 9.94911 22.9103 10.6331 22.1197 11.1981Z" fill="#A1F421"/>
</svg>
