<svg width="41" height="46" viewBox="0 0 41 46" fill="none" xmlns="http://www.w3.org/2000/svg">
<path d="M39.75 45.5H6.25V17.25V12.9375V8.625V0.5H31.3413L39.75 9.48067V45.5Z" stroke="black"/>
<path d="M16.1721 40.1636C19.8857 35.8279 23.9287 28.1504 23.093 22.4667C22.7013 19.8833 21.102 20.7669 21.0037 22.4667C20.9303 23.7351 20.6119 31.8965 29.2304 35.5133C33.8269 37.3734 34.9641 36.5498 35.1638 35.9571C35.3379 35.4404 35.1849 34.4283 33.409 34.2216C31.1891 33.9632 22.9624 33.4465 13.8217 38.6135C11.5234 39.8536 11.3117 41.3048 11.6018 41.8428C11.95 42.4887 13.4872 43.1908 16.1721 40.1636Z" stroke="black"/>
<rect x="0.5" y="9.125" width="22" height="8.34375" fill="#EDEDED" stroke="black"/>
<path d="M6.38256 15.8125H5.54163V11.0184H7.64756C8.13152 11.0184 8.51246 11.1622 8.79038 11.4497C9.07308 11.7372 9.21444 12.0942 9.21444 12.5206C9.21444 12.9423 9.07308 13.2993 8.79038 13.5916C8.51246 13.8791 8.13152 14.0228 7.64756 14.0228H6.38256V15.8125ZM7.53256 13.2825C7.77215 13.2825 7.96861 13.213 8.12194 13.0741C8.27527 12.9351 8.35194 12.7506 8.35194 12.5206C8.35194 12.2906 8.27527 12.1061 8.12194 11.9672C7.96861 11.8282 7.77215 11.7587 7.53256 11.7587H6.38256V13.2825H7.53256Z" fill="black"/>
<path d="M11.697 15.8125H9.91449V11.0184H11.697C12.4397 11.0184 13.0434 11.2412 13.5082 11.6869C13.973 12.1325 14.2054 12.7099 14.2054 13.4191C14.2054 14.1234 13.973 14.6984 13.5082 15.1441C13.0482 15.5897 12.4445 15.8125 11.697 15.8125ZM11.697 15.0722C12.2001 15.0722 12.6002 14.9141 12.8973 14.5978C13.1944 14.2816 13.3429 13.8886 13.3429 13.4191C13.3429 12.9351 13.1968 12.5374 12.9045 12.2259C12.617 11.9145 12.2145 11.7587 11.697 11.7587H10.7554V15.0722H11.697Z" fill="black"/>
<path d="M15.8583 15.8125H15.0173V11.0184H18.302V11.7587H15.8583V13.0022H18.2517V13.7425H15.8583V15.8125Z" fill="black"/>
</svg>
